<svg width="396" height="507" viewBox="0 0 396 507" fill="none" xmlns="http://www.w3.org/2000/svg">
<path d="M314.824 327.396C316.708 332.523 318.272 337.763 319.507 343.085C296.956 358.755 253.127 379.795 201.219 398.855C149.311 417.915 102.278 430.236 74.9451 432.882C72.4424 428.026 70.2444 423.019 68.3637 417.89C68.2733 417.645 68.186 417.405 68.1003 417.159C67.2691 414.866 66.5096 412.566 65.8218 410.26C64.2169 404.922 62.9536 399.487 62.0394 393.989C62.002 393.769 61.9646 393.548 61.9318 393.327C58.2441 370.334 60.7653 346.773 69.2348 325.081C82.4195 291.2 109.532 262.928 146.348 249.411C182.862 236.008 221.494 239.837 253.32 256.783C266.494 263.79 278.377 272.992 288.457 283.994C293.948 289.986 298.864 296.48 303.141 303.39C303.495 303.951 303.838 304.516 304.178 305.086C307.04 309.869 309.593 314.83 311.822 319.938C312.663 321.855 313.459 323.801 314.211 325.776C314.42 326.309 314.626 326.852 314.824 327.396Z" fill="#FFB200"/>
<path d="M321.131 394.033C319.014 406.747 315.046 419.082 309.352 430.646C294.98 459.839 269.795 483.766 236.836 495.868C203.808 507.996 169.043 506.017 139.147 492.988C127.397 487.861 116.456 481.052 106.667 472.775C139.369 467.042 177.435 456.722 217.115 442.155C256.796 427.588 292.496 410.824 321.131 394.033Z" fill="#FFB200"/>
<path d="M217.115 442.157C256.791 427.59 292.488 410.824 321.131 394.033C320.255 399.323 319.052 404.555 317.531 409.697C295.43 423.411 260.525 439.789 220.189 454.6C181.553 468.782 145.784 478.65 120.233 482.834C115.5 479.776 110.969 476.416 106.667 472.776C139.369 467.044 177.435 456.725 217.115 442.157Z" fill="#D66B09"/>
<path d="M314.211 325.771C314.419 326.309 314.622 326.85 314.823 327.395C316.707 332.523 318.271 337.763 319.506 343.085C296.955 358.755 253.126 379.794 201.218 398.854C149.31 417.915 102.277 430.236 74.9444 432.882C72.4417 428.026 70.2437 423.019 68.363 417.89C68.2726 417.645 68.1853 417.405 68.0996 417.159C93.9048 416.199 141.725 404.448 194.648 385.018C249.646 364.821 295.091 341.861 314.211 325.771Z" fill="#D66B09"/>
<path d="M59.7769 373.551L60.8678 364.77C78.6344 366.997 126.398 355.575 177.001 336.997C237.368 314.831 276.963 292.241 284.873 281.384L292.027 286.596C281.558 300.962 236.559 324.556 180.052 345.303C127.454 364.621 79.1082 375.974 59.7769 373.551Z" fill="#D66B09"/>
<path d="M69.5622 329.501L68.9014 320.675C89.188 319.16 124.851 309.749 161.994 296.114C200.904 281.827 234.863 265.412 250.618 253.285L256.016 260.298C239.599 272.939 204.743 289.847 165.045 304.422C127.193 318.309 90.6062 327.92 69.5622 329.501Z" fill="#D66B09"/>
<path d="M61.5845 397.739L62.2733 388.914C82.7439 390.509 132.104 378.505 185.103 359.046C240.695 338.63 287.848 314.568 299.769 300.521L306.517 306.247C293.502 321.579 245.936 346.136 188.154 367.353C133.22 387.521 83.5449 399.448 61.5845 397.739Z" fill="#D66B09"/>
<path d="M139.142 495.201V492.996L138.257 490.962L138.679 490.778H139.147C156.948 490.795 191.511 482.342 227.186 469.242C263.064 456.068 294.001 440.631 307.928 428.954L310.77 432.345C296.479 444.328 265.037 460.056 228.712 473.395C192.029 486.863 157.708 495.22 139.142 495.201Z" fill="#D66B09"/>
<path d="M191.703 507C160.315 507 129.316 496.035 104.653 475.156L99.5737 470.855L106.129 469.704C139.821 463.798 177.828 453.259 216.04 439.23C254.252 425.201 290.047 408.64 319.554 391.341L325.295 387.977L324.204 394.541C316.295 442.207 283.229 482.155 237.91 498.795C223.11 504.226 207.468 507.004 191.703 507ZM113.935 474.617C148.6 500.955 194.664 508.035 235.759 492.944C276.855 477.854 307.395 442.652 316.775 400.14C288.144 416.38 254.219 431.852 218.186 445.082C182.153 458.312 146.276 468.472 113.938 474.617H113.935Z" fill="#371A45"/>
<path d="M391.146 319.184C397.775 337.236 369.504 365.673 321.127 394.033C292.484 410.824 256.787 427.59 217.112 442.157C177.436 456.724 139.366 467.044 106.663 472.776C51.4289 482.46 11.479 479.072 4.85083 461.019C-1.16955 444.624 21.5857 419.676 62.0327 393.989C62.9469 399.487 64.2103 404.922 65.8152 410.259C54.5755 418.159 48.8496 424.66 50.3707 428.805C51.9214 433.026 60.7922 434.249 74.9385 432.882C102.271 430.233 149.306 417.921 201.212 398.854C253.119 379.788 296.952 358.755 319.5 343.085C331.165 334.98 337.137 328.302 335.587 324.081C334.067 319.941 325.494 318.685 311.815 319.933C309.586 314.825 307.033 309.864 304.171 305.081C351.637 298.487 385.131 302.789 391.146 319.184Z" fill="#FFC536"/>
<path d="M62.1939 401.449L63.1991 402.933C53.1267 409.57 45.2767 415.597 39.314 420.971C43.8959 415.203 51.5075 408.723 62.1939 401.449Z" fill="#FF9100"/>
<path d="M64.2076 404.406L63.1992 402.933C63.3691 402.808 63.5655 402.688 63.7603 402.568L64.2076 404.406Z" fill="#FF9100"/>
<path d="M352.705 319.938C351.038 315.418 346.535 312.426 339.055 310.936C331.819 309.504 321.796 309.485 308.886 310.868L309.077 312.644L309.646 317.999C334.281 315.362 344.556 318.546 345.985 322.413C348.355 328.876 331.167 346.203 287.799 368.939C263.557 381.646 234.473 394.343 203.707 405.643C185.606 412.288 167.629 418.193 150.462 423.126C138.451 426.606 126.836 429.606 115.847 432.075C68.072 442.809 43.7567 440.726 41.3784 434.247C39.9852 430.466 45.5442 421.624 65.1779 408.065C65.5161 407.826 65.8683 407.597 66.2205 407.353L64.2054 404.392L63.1986 402.919L62.1934 401.437C51.507 408.709 43.8954 415.189 39.3135 420.957C34.5102 426.954 32.997 432.17 34.6583 436.708C36.2853 441.123 40.6958 443.868 46.9796 445.367C63.3701 449.277 92.4512 444.663 117.41 439.05C128.711 436.515 140.656 433.415 153.013 429.837C170.174 424.878 188.11 418.976 206.17 412.346C237.229 400.944 266.603 388.116 291.131 375.273C322.455 358.858 358.574 335.917 352.705 319.938Z" fill="#FFEC90"/>
<path d="M374.541 318.223C368.393 301.484 333.954 302.218 306.16 305.793L307.069 312.897C307.743 312.814 308.417 312.73 309.077 312.644C321.096 311.178 331.008 310.696 339.055 310.93C357.35 311.486 366.008 315.77 367.823 320.69C371.077 329.574 356.337 350.291 304.028 379.434C276.993 394.501 244.379 409.201 209.694 421.927C193.828 427.747 178.027 432.978 162.662 437.512C144.395 442.912 126.738 447.316 110.265 450.58C51.5305 462.212 26.8863 455.961 23.6213 447.078C21.8104 442.145 25.6629 433.254 39.3136 420.97C45.2763 415.597 53.1263 409.57 63.1987 402.933C63.3702 402.808 63.565 402.688 63.7598 402.566C64.126 402.322 64.5048 402.079 64.8866 401.823L62.9447 398.834L60.9857 395.814C37.4808 411.087 10.7437 432.798 16.9043 449.54C19.2825 456.019 25.8016 459.921 34.6584 462.035C55.5046 466.995 89.2174 462.049 111.647 457.605C131.337 453.709 152.682 448.198 174.689 441.358C187.027 437.531 199.567 433.29 212.147 428.663C247.184 415.799 280.157 400.944 307.505 385.696C335.977 369.829 382.533 339.98 374.541 318.223Z" fill="#FFEC90"/>
<path d="M53.5707 481.221C24.7062 481.221 6.56557 474.726 1.92756 462.094C-4.52764 444.511 16.225 419.392 60.3703 391.358L64.3444 388.833L65.1236 393.478C66.0168 398.845 67.2504 404.151 68.8172 409.362L69.464 411.516L67.6234 412.809C52.0745 423.739 53.2995 427.692 53.3135 427.73C53.3276 427.767 54.9982 431.679 74.6537 429.779C102.55 427.077 150.646 414.106 200.154 395.929C249.662 377.753 294.721 356.522 317.741 340.526C333.949 329.255 332.703 325.195 332.681 325.156C332.659 325.117 331.041 321.311 312.118 323.038L309.879 323.244L308.978 321.182C306.8 316.197 304.308 311.356 301.516 306.688L299.099 302.648L303.762 302C355.556 294.808 387.632 300.532 394.089 318.115C401.149 337.346 375.137 365.999 322.711 396.727C292.89 414.21 256.747 430.933 218.194 445.088C179.64 459.244 141.261 469.883 107.21 475.852C86.6664 479.448 68.6536 481.221 53.5707 481.221ZM59.8155 399.126C22.1581 423.695 2.76445 446.288 7.77962 459.945C13.5257 475.594 51.2112 479.334 106.129 469.706C139.821 463.799 177.828 453.261 216.04 439.231C254.252 425.202 290.047 408.642 319.554 391.343C367.658 363.145 393.971 335.906 388.225 320.258C383.21 306.601 353.803 301.925 309.196 307.561C310.832 310.522 312.361 313.567 313.767 316.645C328.638 315.531 336.521 317.569 338.519 323.007C340.646 328.798 335.17 335.99 321.287 345.645C297.504 362.165 253.026 383.154 202.291 401.781C151.557 420.408 104.067 433.194 75.2444 435.985C58.4128 437.609 49.5779 435.673 47.4521 429.879C45.4557 424.44 50.1514 417.782 62.2108 409.009C61.2882 405.751 60.4872 402.445 59.8155 399.126Z" fill="#371A45"/>
<g opacity="0.41">
<path d="M319.507 343.535C316.882 345.359 313.977 347.251 310.792 349.211C309.822 345.678 308.694 342.151 307.413 338.656C307.21 338.112 307.005 337.574 306.801 337.036C306.05 335.062 305.255 333.115 304.413 331.195C302.183 326.087 299.633 321.126 296.776 316.34C296.437 315.773 296.088 315.21 295.738 314.649C291.462 307.736 286.544 301.24 281.05 295.249C270.971 284.249 259.088 275.05 245.914 268.047C214.084 251.101 175.449 247.262 138.937 260.673C114.563 269.623 94.4383 285.044 79.7949 304.283C95.2099 279.159 118.664 259.981 146.35 249.863C182.86 236.46 221.496 240.293 253.317 257.238C266.494 264.244 278.379 273.446 288.46 284.449C293.951 290.439 298.866 296.931 303.143 303.839C303.5 304.402 303.839 304.971 304.178 305.538C307.04 310.319 309.594 315.278 311.822 320.386C312.663 322.307 313.459 324.254 314.21 326.227C314.423 326.766 314.627 327.302 314.822 327.854C316.706 332.979 318.271 338.216 319.507 343.535Z" fill="white"/>
</g>
<path d="M73.1383 436.188L72.1705 434.318C69.6104 429.346 67.3603 424.22 65.4332 418.97C64.4841 416.386 63.6098 413.758 62.8321 411.159C61.1903 405.696 59.8973 400.134 58.9608 394.507C48.4224 330.972 84.7208 268.724 145.271 246.492C205.82 224.261 273.775 248.23 306.852 303.487C309.78 308.385 312.394 313.464 314.678 318.693C315.769 321.177 316.801 323.747 317.748 326.33C319.677 331.579 321.278 336.942 322.544 342.39L323.021 344.448L321.286 345.653C297.504 362.173 253.025 383.162 202.29 401.789C151.556 420.416 104.066 433.194 75.2438 435.985L73.1383 436.188ZM191.553 244.476C176.493 244.477 161.552 247.138 147.418 252.336C89.6768 273.532 55.0615 332.897 65.1106 393.478C66.0037 398.846 67.2374 404.151 68.8042 409.362C69.546 411.845 70.3798 414.349 71.2852 416.816C72.8794 421.159 74.7049 425.412 76.7539 429.56C104.931 426.43 151.863 413.656 200.141 395.929C248.42 378.203 292.468 357.572 315.975 341.726C314.853 337.238 313.492 332.813 311.896 328.471C310.994 326.009 310.007 323.559 308.968 321.187C306.789 316.199 304.296 311.354 301.503 306.682C277.872 267.206 235.567 244.476 191.553 244.476Z" fill="#371A45"/>
<g opacity="0.3">
<path d="M158.026 413.546C123.906 424.195 94.4198 431.001 74.942 432.884C60.7973 434.251 51.9265 433.027 50.3758 428.807C48.8547 424.661 54.5837 418.161 65.8203 410.261C64.8852 407.161 64.0919 404.049 63.3984 400.934C26.9068 425.162 6.79623 448.356 12.4956 463.88C14.146 468.376 17.8661 471.961 23.3706 474.662C22.8501 474.514 22.3436 474.35 21.8417 474.194C39.7236 479.864 69.7757 479.236 106.666 472.768C139.369 467.036 177.435 456.716 217.115 442.149C220.192 441.02 223.24 439.877 226.26 438.72C114.889 462.668 158.026 413.546 158.026 413.546Z" fill="#371A45"/>
</g>
<g opacity="0.3">
<path d="M161.143 395.451C200.508 394.927 282.722 360.446 316.727 344.967C317.682 344.331 318.617 343.702 319.507 343.084C318.67 339.491 321.393 342.358 320.24 338.794C298.798 349.236 198.344 393.9 153.5 394.495C151.54 394.52 149.581 394.459 147.631 394.324C152.088 395.136 156.613 395.513 161.143 395.451Z" fill="#371A45"/>
</g>
<g opacity="0.3">
<path d="M320.236 338.794C298.795 349.236 198.341 393.9 153.497 394.495C129.964 394.807 106.486 383.524 101.55 360.521C101.46 360.098 101.394 359.741 101.341 359.447C101.304 359.227 101.268 359.006 101.232 358.778C99.9462 350.794 99.4098 342.706 99.63 334.622C100.267 311.751 106.85 289.441 118.732 269.889C100.126 284.302 85.7425 303.458 77.0925 325.347C68.4425 347.236 65.8446 371.049 69.5717 394.288C69.5998 394.508 69.6372 394.727 69.673 394.947C70.5901 400.446 71.8551 405.882 73.4601 411.221C74.1448 413.527 74.9022 415.827 75.7323 418.12C75.8227 418.366 75.9053 418.603 75.9957 418.85C77.6629 423.36 79.5696 427.778 81.7075 432.086C80.5927 432.236 79.5018 432.376 78.4347 432.505C106.176 429.202 151.449 417.129 201.211 398.859C253.119 379.8 296.953 358.756 319.499 343.089C318.678 339.491 321.393 342.358 320.236 338.794Z" fill="#371A45"/>
</g>
<g opacity="0.3">
<path d="M119.277 474.236C125.296 478.129 131.621 481.526 138.191 484.391C168.084 497.42 202.852 499.399 235.881 487.273C268.839 475.171 294.024 451.244 308.396 422.049C311.717 415.313 314.454 408.303 316.575 401.099C317.261 398.781 317.874 396.44 318.43 394.085C290.084 410.538 255.041 426.927 216.16 441.203C179.637 454.613 144.493 464.41 113.628 470.357C115.483 471.694 117.359 472.997 119.277 474.236Z" fill="#371A45"/>
</g>
<path d="M152.63 246.013H228.825C242.213 246.013 253.066 235.16 253.066 221.773V153.44C253.066 140.052 242.213 129.199 228.825 129.199H152.63C139.243 129.199 128.39 140.052 128.39 153.44V221.773C128.39 235.16 139.243 246.013 152.63 246.013Z" fill="white"/>
<path d="M253.066 153.04V222.177C253.066 235.285 241.977 246.021 228.417 246.021H153.037C139.478 246.021 128.388 235.291 128.388 222.177V153.04C128.386 149.371 129.264 145.756 130.947 142.497C132.162 140.139 133.759 137.997 135.672 136.16C140.032 131.98 145.758 129.521 151.791 129.237C152.206 129.217 152.622 129.206 153.038 129.206H228.426C238.347 129.206 246.938 134.954 250.838 143.172C251.277 144.096 251.654 145.048 251.968 146.022C252.697 148.29 253.067 150.658 253.066 153.04Z" fill="white"/>
<path d="M228.825 129.2C242.158 129.2 253.066 140.109 253.066 153.44V221.773C253.066 235.106 242.156 246.014 228.825 246.014H152.63C139.297 246.014 128.388 235.104 128.388 221.773V153.44C128.388 140.108 139.297 129.2 152.63 129.2H228.825ZM228.825 124.213H152.63C136.509 124.213 123.396 137.327 123.396 153.447V221.779C123.396 237.899 136.509 251.012 152.63 251.012H228.825C244.944 251.012 258.059 237.899 258.059 221.779V153.44C258.059 137.321 244.944 124.207 228.825 124.207V124.213Z" fill="#371A45"/>
<g opacity="0.3">
<path d="M250.369 156.551L250.047 156.718C250.047 156.562 250.047 156.406 250.047 156.258C250.059 156.049 250.085 155.841 250.123 155.635C250.133 155.579 250.144 155.527 250.158 155.479C250.16 155.457 250.164 155.435 250.17 155.413C250.184 155.349 250.201 155.289 250.22 155.229C250.239 155.17 250.248 155.125 250.264 155.074C250.27 155.048 250.279 155.022 250.288 154.997C250.307 154.94 250.327 154.882 250.348 154.827C250.368 154.773 250.399 154.693 250.426 154.628C250.41 154.7 250.396 154.771 250.384 154.843C250.355 154.999 250.335 155.155 250.321 155.311C250.288 155.725 250.304 156.141 250.369 156.551Z" fill="#6B184E"/>
</g>
<path d="M156.522 133.504L154.484 138.858L152.754 143.399L151.25 147.351L142.387 170.619C140.951 171.018 139.483 171.38 137.975 171.681C119.039 175.577 94.0258 171.461 59.8952 133.186C54.5559 127.202 41.672 123.574 47.2887 109.965C53.0333 96.0449 61.1171 97.7826 61.1171 97.7826C61.1171 97.7826 58.9991 90.8833 63.5654 87.3907C70.0097 82.4566 77.6509 89.7658 85.0724 94.9774C86.1274 95.7192 85.6552 85.7216 92.6278 86.0224C102.602 86.4525 102.067 109.217 102.067 109.217C102.067 109.217 115.52 123.99 136.407 130.497C141.995 132.257 147.794 133.258 153.648 133.473C154.594 133.504 155.559 133.517 156.522 133.504Z" fill="white"/>
<g opacity="0.35">
<path d="M142.385 170.618C122.968 176.012 96.7498 174.514 59.8966 133.187C54.5588 127.202 41.6749 123.579 47.2917 109.965C50.739 101.603 55.0357 98.9002 57.9095 98.0586C56.9339 99.5391 56.2373 101.475 55.0684 103.535C48.4964 115.11 66.4905 126.343 71.4496 124.289C74.4917 123.028 75.5624 121.808 77.3188 115.992C79.1889 109.809 82.0939 106.869 82.4352 107.254C83.9937 108.999 84.0295 130.54 87.6078 138.111C96.7311 157.436 121.3 166.928 139.128 166.1C139.68 166.074 140.23 166.186 140.729 166.427C141.227 166.667 141.657 167.028 141.98 167.476C142.304 167.925 142.51 168.447 142.581 168.996C142.652 169.544 142.584 170.102 142.385 170.618Z" fill="#371A45"/>
</g>
<path d="M126.812 175.327C109.839 175.327 87.1021 167.379 58.0631 134.823C56.888 133.504 55.1862 132.235 53.3877 130.894C47.7772 126.711 40.0892 120.982 45.0202 109.03C49.1829 98.9433 54.7171 96.1552 58.2314 95.4711C57.9914 92.5786 58.3873 88.2631 62.0746 85.4407C69.0503 80.1045 76.6136 85.7041 83.287 90.6429L83.9104 91.1105C84.8455 88.0122 87.0117 83.3181 92.736 83.5737C103.761 84.0412 104.531 103.084 104.537 108.243C108.388 112.117 128.967 131.425 156.493 131.053H156.526C157.177 131.049 157.803 131.303 158.266 131.761C158.729 132.219 158.991 132.841 158.995 133.492C158.999 134.143 158.744 134.769 158.287 135.232C157.829 135.695 157.206 135.958 156.555 135.962C123.859 136.373 101.205 111.919 100.256 110.87C99.8301 110.402 99.6013 109.788 99.6167 109.156C99.7725 102.512 98.2281 88.712 92.5241 88.4657C90.0835 88.3644 89.1282 90.3125 88.2258 93.95C87.8502 95.4617 87.526 96.7677 86.0922 97.3038C85.6918 97.4511 85.2616 97.4988 84.8386 97.4429C84.4156 97.387 84.0126 97.2291 83.6642 96.9828C82.5732 96.2129 81.4667 95.3978 80.3649 94.5812C73.3517 89.393 68.8322 86.4491 65.0575 89.3338C61.9235 91.7307 63.4508 97.0155 63.4663 97.0685C63.5901 97.4778 63.605 97.9123 63.5096 98.3292C63.4142 98.746 63.2117 99.1308 62.9222 99.4455C62.6327 99.7602 62.2661 99.9939 61.8587 100.124C61.4512 100.253 61.0169 100.275 60.5988 100.185C60.3977 100.156 54.3524 99.2878 49.5585 110.903C46.0816 119.327 50.8271 122.863 56.3207 126.955C58.2392 128.384 60.2169 129.862 61.7302 131.553C99.4827 173.884 125.472 172.77 141.73 168.25C142.04 168.164 142.365 168.14 142.685 168.179C143.005 168.218 143.314 168.32 143.595 168.479C143.876 168.637 144.122 168.85 144.321 169.104C144.519 169.358 144.666 169.648 144.752 169.959C144.839 170.27 144.863 170.594 144.824 170.914C144.784 171.234 144.683 171.544 144.524 171.824C144.365 172.105 144.153 172.352 143.899 172.55C143.645 172.749 143.354 172.895 143.044 172.982C138.376 174.277 132.973 175.327 126.812 175.327Z" fill="#371A45"/>
<path d="M88.0671 94.4429L87.5154 102.235C87.4835 102.695 87.3297 103.139 87.0697 103.519L87.0027 103.618C86.8195 103.821 86.6483 104.035 86.4899 104.258C86.3091 104.508 86.133 104.765 85.9678 105.037C85.6336 105.573 85.3337 106.13 85.0702 106.703C84.5454 107.845 84.199 109.06 84.0431 110.307C83.9403 110.93 83.9745 111.553 83.9668 112.177C84.0603 112.791 84.0774 113.433 84.2784 114.047C84.5418 115.294 85.1699 116.466 85.8369 117.622L85.9008 117.733C86.0592 118 86.1102 118.317 86.0433 118.62C85.9763 118.924 85.7966 119.19 85.5405 119.366C85.2844 119.541 84.971 119.613 84.6641 119.566C84.3571 119.519 84.0794 119.358 83.8873 119.114C82.9054 117.889 81.9423 116.57 81.3641 115.023C81.0088 114.274 80.8436 113.464 80.6207 112.657C80.4992 111.837 80.3511 111.006 80.3604 110.173C80.3283 108.507 80.5528 106.847 81.0259 105.249C81.2604 104.456 81.5456 103.678 81.88 102.921C82.0452 102.541 82.2275 102.165 82.4239 101.793C82.6345 101.388 82.867 100.995 83.1205 100.616L82.6078 101.998L83.1751 93.9863C83.226 93.3406 83.53 92.7412 84.0209 92.3187C84.5118 91.8963 85.1498 91.6849 85.7958 91.7308C86.4419 91.7766 87.0436 92.076 87.4699 92.5635C87.8962 93.0511 88.1126 93.6874 88.0718 94.3338L88.0671 94.4429Z" fill="#371A45"/>
<path d="M104.528 170.148C104.139 170.148 103.759 170.032 103.437 169.814C103.114 169.597 102.865 169.288 102.719 168.927C102.574 168.566 102.54 168.17 102.622 167.79C102.704 167.41 102.897 167.063 103.178 166.794C116.375 154.13 118.393 123.556 118.412 123.249C118.444 122.732 118.679 122.249 119.066 121.906C119.454 121.563 119.962 121.388 120.479 121.419C120.995 121.451 121.478 121.686 121.821 122.073C122.165 122.461 122.34 122.969 122.308 123.486C122.229 124.803 120.181 155.885 105.884 169.606C105.52 169.956 105.033 170.151 104.528 170.148Z" fill="#371A45"/>
<path d="M274.965 234.156C273.916 257.357 266.822 266.772 258.064 269.743C256.179 270.385 254.197 270.695 252.207 270.657C246.009 270.442 241.51 267.827 241.51 267.827C241.51 267.827 239.226 268.786 237.133 268.583C220.936 267.011 224.631 257.4 227.921 242C228.866 237.57 229.78 232.659 230.173 227.326C232.043 202.13 224.999 178.31 224.999 178.31L227.712 155.705L230.733 130.51C230.733 130.51 232.316 131.946 234.888 134.678C237.14 137.065 240.147 140.435 243.504 144.7C257.203 162.069 276.782 194.182 274.965 234.156Z" fill="white"/>
<path d="M252.639 273.12C252.465 273.12 252.293 273.12 252.122 273.111C248.385 272.962 244.715 272.072 241.326 270.491C240.252 270.814 238.572 271.188 236.897 271.024C230.788 270.434 226.907 268.729 224.683 265.663C221.206 260.869 222.74 253.992 224.683 245.285C225.875 239.941 227.225 233.883 227.727 227.141C229.543 202.718 222.72 179.238 222.651 179.004C222.466 178.38 222.537 177.708 222.848 177.136C223.159 176.564 223.685 176.139 224.309 175.954C224.934 175.77 225.606 175.841 226.178 176.152C226.75 176.463 227.175 176.988 227.359 177.613C227.652 178.604 234.508 202.159 232.624 227.506C232.095 234.603 230.704 240.846 229.477 246.354C227.805 253.853 226.483 259.777 228.662 262.78C229.98 264.599 232.829 265.697 237.374 266.139C238.566 266.255 240.089 265.76 240.578 265.56L241.696 265.102L242.749 265.707C242.783 265.726 246.842 268.016 252.295 268.2C253.99 268.232 255.677 267.969 257.282 267.421C266.536 264.282 271.665 253.054 272.525 234.048C273.928 203.242 262.083 177.267 251.894 160.9C240.799 143.069 229.207 132.434 229.091 132.33C228.609 131.892 228.32 131.28 228.289 130.63C228.258 129.979 228.487 129.343 228.925 128.861C229.363 128.379 229.974 128.091 230.624 128.06C231.275 128.029 231.911 128.257 232.393 128.695C232.882 129.139 244.527 139.804 255.979 158.172C266.569 175.16 278.888 202.145 277.431 234.271C276.456 255.798 270.381 268.163 258.859 272.07C256.854 272.747 254.755 273.102 252.639 273.12Z" fill="#371A45"/>
<path d="M229.709 205.81C229.251 205.809 228.808 205.647 228.458 205.352C228.108 205.057 227.872 204.649 227.793 204.198C227.713 203.747 227.795 203.283 228.024 202.886C228.253 202.489 228.614 202.186 229.044 202.029C230.378 201.546 261.811 190.311 273.234 200.583C273.618 200.928 273.85 201.412 273.877 201.928C273.904 202.444 273.725 202.95 273.38 203.334C273.034 203.718 272.55 203.949 272.034 203.977C271.518 204.004 271.013 203.825 270.628 203.48C262.584 196.245 238.836 202.624 230.373 205.693C230.16 205.77 229.936 205.81 229.709 205.81Z" fill="#371A45"/>
<path d="M247.519 242H133.327C133.026 232.738 133.101 223.821 133.45 215.296C133.776 207.402 134.346 199.847 135.094 192.672C135.777 186.11 136.611 179.869 137.544 173.97C137.667 173.191 137.814 172.43 137.974 171.687C140.287 161.223 146.505 153.975 150.777 146.965C151.5 145.774 152.17 144.596 152.753 143.405C153.422 142.065 153.971 140.669 154.391 139.231C154.428 139.111 154.459 138.988 154.483 138.864C154.779 137.335 154.349 135.451 153.649 133.481C152.114 129.153 149.286 124.396 150.084 122.046C151.397 118.173 152.538 115.128 153.386 112.981C154.349 110.526 154.926 109.24 154.926 109.24H225.92C225.92 109.24 226.51 110.506 227.498 112.942C228.523 115.465 229.971 119.239 231.628 124.192C232.653 127.248 233.758 130.753 234.888 134.682C235.715 137.555 236.563 140.654 237.403 143.968C237.802 145.545 238.201 147.172 238.588 148.841C240.442 156.661 242.216 165.517 243.701 175.355C244.543 180.868 245.284 186.675 245.892 192.774C246.623 199.981 247.162 207.58 247.463 215.551C247.783 223.963 247.826 232.801 247.519 242Z" fill="white"/>
<path d="M142.779 154.173C142.879 156.099 142.768 157.958 142.675 159.815C142.581 161.671 142.402 163.5 142.237 165.332C142.072 167.163 141.797 168.964 141.549 170.775C141.266 172.58 140.893 174.369 140.574 176.171L140.086 178.872C139.94 179.776 139.818 180.683 139.692 181.59C139.441 183.402 139.209 185.219 139.006 187.044C138.803 188.869 138.587 190.685 138.409 192.511C138.231 194.338 138.044 196.16 137.892 197.989C137.223 205.3 137.028 212.651 136.76 219.998C136.595 223.67 136.436 227.343 136.163 231.017C135.956 234.693 135.744 238.365 133.707 242.018C133.652 242.116 133.561 242.189 133.452 242.22C133.344 242.251 133.228 242.238 133.129 242.183C133.054 242.142 132.993 242.08 132.954 242.004C131.067 238.274 131.02 234.565 131.038 230.862C130.995 227.156 131.094 223.453 131.27 219.75C131.669 212.346 132.381 204.957 133.001 197.559C133.156 195.711 133.331 193.863 133.525 192.014C133.704 190.166 133.905 188.319 134.13 186.472C134.337 184.625 134.57 182.78 134.826 180.937L135.523 175.396C135.73 173.543 135.99 171.696 136.344 169.864C136.698 168.031 137.175 166.221 137.695 164.425C138.775 160.84 140.137 157.315 142.05 153.983C142.091 153.91 142.155 153.852 142.233 153.818C142.31 153.784 142.396 153.777 142.478 153.796C142.56 153.815 142.633 153.861 142.687 153.925C142.741 153.99 142.773 154.07 142.777 154.154L142.779 154.173Z" fill="#371A45"/>
<path d="M247.144 242.01C245.118 238.714 244.921 235.389 244.75 232.068C244.508 228.75 244.381 225.434 244.254 222.124C244.053 215.502 243.888 208.887 243.189 202.317C242.861 199.03 242.459 195.751 242.004 192.478C241.549 189.206 241.089 185.933 240.383 182.694C240.058 181.072 239.701 179.456 239.425 177.824C239.172 176.188 238.971 174.54 238.809 172.882C238.647 171.224 238.574 169.549 238.521 167.861C238.462 166.147 238.514 164.432 238.677 162.726V162.716C238.682 162.665 238.698 162.615 238.722 162.57C238.747 162.524 238.781 162.484 238.821 162.452C238.861 162.419 238.907 162.395 238.957 162.381C239.007 162.366 239.059 162.361 239.11 162.367C239.172 162.374 239.232 162.396 239.284 162.43C239.336 162.465 239.38 162.511 239.411 162.565C241.125 165.602 242.356 168.765 243.354 171.983C244.351 175.194 245.043 178.492 245.42 181.832C245.852 185.163 246.422 188.475 246.87 191.807C247.317 195.139 247.742 198.474 248.074 201.82C248.732 208.51 249.415 215.206 249.748 221.904C249.884 225.255 249.952 228.605 249.877 231.945C249.86 235.288 249.798 238.628 247.897 241.997C247.84 242.098 247.745 242.172 247.634 242.203C247.523 242.234 247.404 242.219 247.303 242.162C247.238 242.126 247.183 242.073 247.144 242.01Z" fill="#371A45"/>
<g opacity="0.35">
<path d="M247.464 220.924C240.451 221.609 231.714 221.859 224.927 220.077V223.836C224.921 226.35 223.919 228.758 222.141 230.535C220.363 232.312 217.954 233.313 215.441 233.318H163.681C161.169 233.31 158.762 232.309 156.987 230.532C155.211 228.755 154.21 226.348 154.204 223.836V220.825C147.438 221.854 139.564 221.41 133.451 220.719C133.772 214.429 134.346 208.407 135.095 202.692C140.706 202.928 147.948 203.029 154.204 202.488V195.734C154.209 193.222 155.209 190.815 156.985 189.039C158.762 187.262 161.169 186.262 163.681 186.257H215.441C216.903 186.26 218.345 186.601 219.654 187.253C220.963 187.906 222.104 188.852 222.987 190.017C224.246 191.659 224.927 193.67 224.926 195.739V202.071C231.225 202.987 239.374 202.987 245.893 202.772C246.623 208.516 247.164 214.574 247.464 220.924Z" fill="#371A45"/>
</g>
<path d="M164.219 211.001C157.101 213.881 146.088 213.279 138.579 212.371C137.509 212.241 136.477 211.898 135.542 211.362C134.607 210.826 133.789 210.109 133.137 209.252C132.484 208.394 132.01 207.415 131.742 206.372C131.474 205.328 131.418 204.241 131.577 203.176C131.867 201.198 132.882 199.399 134.424 198.128C135.966 196.856 137.926 196.203 139.922 196.295C146.945 196.624 157.48 196.778 164.152 195.299" fill="white"/>
<g opacity="0.35">
<path d="M164.221 210.999C157.101 213.884 146.086 213.276 138.579 212.372C137.285 212.213 136.048 211.742 134.975 211C133.902 210.259 133.025 209.268 132.419 208.114C131.812 206.959 131.494 205.675 131.492 204.37C131.49 203.066 131.804 201.781 132.407 200.625C133.012 201.783 133.89 202.777 134.966 203.521C136.041 204.264 137.281 204.734 138.579 204.89C146.074 205.799 157.07 206.402 164.189 203.534L164.221 210.999Z" fill="#371A45"/>
</g>
<path d="M150.059 215.576C146.122 215.554 142.189 215.297 138.283 214.808C135.582 214.477 133.114 213.113 131.398 211.002C129.681 208.891 128.849 206.197 129.076 203.485C129.303 200.774 130.572 198.256 132.616 196.459C134.659 194.663 137.319 193.728 140.038 193.851C150.334 194.333 158.71 194.007 163.62 192.916C164.515 192.717 167.566 192.48 169.211 197.765C170.755 202.733 170.529 211.102 165.14 213.284C160.89 214.997 155.449 215.576 150.059 215.576ZM139.539 198.745C138.105 198.74 136.724 199.284 135.679 200.265C134.634 201.247 134.004 202.591 133.919 204.022C133.834 205.453 134.3 206.863 135.221 207.961C136.143 209.059 137.449 209.763 138.873 209.928C149.518 211.217 158.198 210.789 163.298 208.722C164.389 208.283 164.816 206.462 164.951 205.702C165.503 202.615 164.699 199.061 163.969 197.849C157.146 199.205 147.138 199.096 139.813 198.751C139.717 198.745 139.628 198.745 139.539 198.745Z" fill="#371A45"/>
<path d="M218.655 211.001C225.773 213.881 236.787 213.279 244.297 212.371C245.366 212.241 246.399 211.897 247.333 211.362C248.268 210.826 249.085 210.108 249.738 209.251C250.391 208.394 250.865 207.415 251.133 206.371C251.4 205.328 251.457 204.241 251.297 203.176C251.007 201.198 249.992 199.399 248.45 198.128C246.908 196.856 244.948 196.203 242.952 196.295C235.929 196.624 225.394 196.778 218.722 195.299" fill="white"/>
<g opacity="0.35">
<path d="M244.295 212.373C236.786 213.276 225.772 213.884 218.653 211L218.684 203.466C225.804 206.332 236.799 205.73 244.295 204.822C245.587 204.667 246.822 204.201 247.894 203.463C248.965 202.726 249.842 201.739 250.448 200.587C250.879 201.397 251.168 202.276 251.3 203.184C251.457 204.249 251.4 205.335 251.131 206.377C250.862 207.42 250.387 208.398 249.734 209.254C249.081 210.111 248.264 210.828 247.33 211.363C246.395 211.899 245.364 212.242 244.295 212.373Z" fill="#371A45"/>
</g>
<path d="M232.816 215.577C227.425 215.577 221.984 214.999 217.734 213.278C212.345 211.096 212.124 202.727 213.664 197.759C215.308 192.474 218.359 192.711 219.254 192.91C224.165 194.001 232.538 194.333 242.838 193.845C245.556 193.723 248.216 194.658 250.259 196.455C252.302 198.251 253.57 200.769 253.797 203.48C254.024 206.191 253.192 208.885 251.475 210.996C249.759 213.107 247.292 214.471 244.591 214.802C240.685 215.293 236.753 215.552 232.816 215.577ZM219.576 208.719C224.684 210.786 233.356 211.213 244.002 209.926C245.453 209.762 246.784 209.04 247.71 207.911C248.637 206.783 249.088 205.338 248.966 203.883C248.844 202.428 248.16 201.077 247.058 200.119C245.957 199.16 244.525 198.668 243.067 198.748C235.742 199.091 225.728 199.202 218.911 197.846C218.182 199.058 217.377 202.612 217.929 205.699C218.065 206.46 218.499 208.28 219.583 208.719H219.576Z" fill="#371A45"/>
<path d="M221.406 190.119V215.265C221.399 217.513 220.502 219.668 218.913 221.258C217.323 222.847 215.168 223.744 212.92 223.751H166.597C164.35 223.743 162.197 222.846 160.608 221.256C159.02 219.666 158.124 217.512 158.118 215.265V190.119C158.124 187.872 159.02 185.719 160.608 184.13C162.197 182.541 164.35 181.645 166.597 181.638H212.92C215.168 181.642 217.324 182.537 218.914 184.126C220.504 185.716 221.4 187.87 221.406 190.119Z" fill="white"/>
<g opacity="0.35">
<path d="M221.406 190.119V215.265C221.399 217.513 220.503 219.667 218.914 221.257C217.324 222.847 215.17 223.743 212.921 223.749H166.601C164.352 223.743 162.198 222.847 160.608 221.257C159.019 219.667 158.123 217.513 158.116 215.265V205.858C165.073 212.951 178.753 217.403 191.302 217.47C195.334 217.49 198.587 214.302 198.873 210.279C198.873 210.24 198.873 210.2 198.884 210.159C199.048 208.348 199.88 206.663 201.218 205.432C202.556 204.201 204.305 203.512 206.123 203.5C207.942 203.488 209.699 204.153 211.054 205.367C212.408 206.58 213.262 208.254 213.45 210.063C219.528 202.565 217.745 189.531 219.676 184.995C220.801 186.466 221.409 188.267 221.406 190.119Z" fill="#371A45"/>
</g>
<path d="M212.923 226.211H166.599C163.699 226.207 160.92 225.054 158.87 223.004C156.82 220.953 155.666 218.173 155.663 215.274V190.117C155.666 187.218 156.82 184.438 158.87 182.388C160.92 180.338 163.7 179.184 166.599 179.181H212.923C215.822 179.184 218.602 180.338 220.652 182.388C222.702 184.438 223.855 187.218 223.859 190.117V215.274C223.855 218.173 222.702 220.953 220.652 223.004C218.602 225.054 215.822 226.207 212.923 226.211ZM166.599 184.095C165.001 184.097 163.469 184.733 162.34 185.862C161.21 186.992 160.574 188.524 160.572 190.122V215.278C160.574 216.876 161.21 218.408 162.34 219.538C163.469 220.667 165.001 221.303 166.599 221.305H212.923C214.521 221.303 216.052 220.667 217.182 219.538C218.312 218.408 218.947 216.876 218.95 215.278V190.117C218.947 188.519 218.312 186.988 217.182 185.858C216.052 184.728 214.521 184.092 212.923 184.09L166.599 184.095Z" fill="#371A45"/>
<path d="M211.344 207.868C214.201 205.011 214.201 200.379 211.344 197.522C208.487 194.665 203.855 194.665 200.998 197.522C198.141 200.379 198.141 205.011 200.998 207.868C203.855 210.725 208.487 210.724 211.344 207.868Z" fill="#22A7F0"/>
<g opacity="0.7">
<path d="M213.482 202.696C213.483 203.187 213.435 203.676 213.34 204.158C212.999 202.507 212.099 201.024 210.793 199.959C209.486 198.895 207.852 198.313 206.166 198.313C204.48 198.313 202.846 198.895 201.54 199.959C200.233 201.024 199.333 202.507 198.992 204.158C198.898 203.676 198.85 203.187 198.851 202.696C198.851 200.756 199.621 198.895 200.993 197.523C202.365 196.151 204.226 195.38 206.166 195.38C208.106 195.38 209.967 196.151 211.339 197.523C212.711 198.895 213.482 200.756 213.482 202.696Z" fill="white"/>
</g>
<g opacity="0.35">
<path d="M213.481 202.694C213.481 204.634 212.71 206.494 211.339 207.866C209.967 209.238 208.107 210.008 206.167 210.008C204.227 210.008 202.367 209.238 200.995 207.866C199.624 206.494 198.853 204.634 198.853 202.694C198.851 201.787 199.021 200.888 199.355 200.045C199.889 201.417 200.825 202.597 202.04 203.428C203.256 204.26 204.694 204.705 206.167 204.705C207.64 204.705 209.078 204.26 210.294 203.428C211.509 202.597 212.445 201.417 212.979 200.045C213.313 200.888 213.483 201.787 213.481 202.694Z" fill="#371A45"/>
</g>
<path d="M206.172 211.851C204.361 211.851 202.591 211.314 201.085 210.308C199.579 209.302 198.406 207.872 197.713 206.199C197.02 204.526 196.838 202.685 197.192 200.909C197.545 199.133 198.417 197.501 199.697 196.221C200.978 194.94 202.609 194.068 204.385 193.715C206.162 193.362 208.003 193.543 209.676 194.236C211.349 194.929 212.779 196.103 213.785 197.608C214.791 199.114 215.328 200.884 215.328 202.695C215.325 205.123 214.36 207.45 212.643 209.167C210.927 210.883 208.599 211.849 206.172 211.851ZM206.172 197.222C205.089 197.222 204.031 197.543 203.131 198.144C202.231 198.746 201.529 199.6 201.115 200.601C200.701 201.601 200.592 202.701 200.803 203.763C201.015 204.825 201.536 205.8 202.301 206.565C203.067 207.331 204.042 207.852 205.104 208.063C206.166 208.274 207.266 208.166 208.266 207.752C209.266 207.338 210.121 206.636 210.723 205.736C211.324 204.836 211.645 203.778 211.645 202.695C211.643 201.244 211.066 199.853 210.04 198.827C209.014 197.801 207.623 197.223 206.172 197.222Z" fill="#371A45"/>
<path d="M185.443 225.598C184.954 225.598 184.485 225.404 184.14 225.058C183.795 224.713 183.6 224.244 183.6 223.755V210.393C183.598 209.259 183.333 208.14 182.826 207.125C182.32 206.109 181.586 205.225 180.681 204.54L178.724 203.067C177.365 202.038 176.261 200.709 175.5 199.183C174.739 197.658 174.341 195.977 174.337 194.272V181.636C174.351 181.157 174.551 180.702 174.895 180.368C175.239 180.034 175.699 179.848 176.178 179.848C176.658 179.848 177.118 180.034 177.462 180.368C177.806 180.702 178.006 181.157 178.02 181.636V194.272C178.022 195.407 178.287 196.525 178.794 197.54C179.3 198.555 180.034 199.44 180.939 200.124L182.896 201.599C184.255 202.628 185.359 203.957 186.12 205.482C186.881 207.008 187.279 208.688 187.283 210.393V223.755C187.283 224.244 187.089 224.712 186.744 225.058C186.399 225.403 185.931 225.597 185.443 225.598Z" fill="#371A45"/>
<g opacity="0.35">
<path d="M245.897 147.118C244.219 148.676 242.469 150.152 240.647 151.536C237.005 154.328 233.117 156.784 229.03 158.872C216.022 165.483 201.369 168.16 186.864 166.575C172.358 164.991 158.629 159.213 147.355 149.949C147.184 149.818 147.014 149.674 146.85 149.53C140.852 144.503 135.674 138.57 131.505 131.946C137.474 133.828 143.668 134.898 149.922 135.127C148.282 130.504 145.267 125.424 146.113 122.913C147.516 118.775 148.734 115.524 149.64 113.229C150.668 110.607 151.286 109.236 151.286 109.236H227.118C227.118 109.236 227.741 110.587 228.802 113.19C229.893 115.884 231.452 119.916 233.214 125.207C234.305 128.472 235.49 132.22 236.696 136.411C239.102 138.962 242.313 142.561 245.897 147.118Z" fill="#371A45"/>
</g>
<path d="M266.676 113.704C266.269 113.645 265.902 113.427 265.655 113.099C265.407 112.771 265.3 112.358 265.356 111.95L271.59 67.6899C271.618 67.4881 271.685 67.2938 271.789 67.1182C271.892 66.9426 272.029 66.7891 272.192 66.6664C272.354 66.5438 272.54 66.4545 272.737 66.4036C272.934 66.3527 273.14 66.3412 273.341 66.3698C277.617 66.9717 281.478 69.2473 284.076 72.6961C286.673 76.1448 287.795 80.4843 287.193 84.7598L285.067 99.8521C284.769 101.969 284.057 104.007 282.972 105.849C281.886 107.691 280.448 109.301 278.74 110.587C277.033 111.873 275.088 112.811 273.018 113.345C270.948 113.88 268.793 114.002 266.676 113.704Z" fill="white"/>
<path d="M268.962 114.341C268.177 114.341 267.393 114.287 266.615 114.178C266.351 114.141 266.097 114.052 265.867 113.917C265.637 113.782 265.436 113.603 265.275 113.389C265.115 113.176 264.998 112.933 264.932 112.675C264.865 112.417 264.851 112.148 264.889 111.884L271.123 67.623C271.159 67.3589 271.248 67.1047 271.383 66.8748C271.518 66.645 271.697 66.4441 271.91 66.2837C272.123 66.1233 272.366 66.0065 272.624 65.94C272.882 65.8735 273.151 65.8586 273.415 65.8962C277.813 66.5185 281.784 68.8612 284.456 72.4097C287.128 75.9581 288.282 80.4221 287.664 84.8208L285.538 99.913C284.972 103.909 282.984 107.567 279.94 110.217C276.896 112.867 272.998 114.331 268.962 114.341ZM273.128 66.8329C272.87 66.8327 272.62 66.926 272.426 67.0956C272.231 67.2652 272.104 67.4996 272.069 67.7555L265.835 112.016C265.815 112.156 265.823 112.298 265.858 112.434C265.893 112.571 265.955 112.699 266.039 112.811C266.124 112.924 266.23 113.019 266.351 113.09C266.473 113.162 266.607 113.209 266.746 113.229C270.895 113.807 275.104 112.716 278.45 110.195C281.795 107.675 284.004 103.93 284.592 99.7821L286.718 84.6883C287.298 80.5393 286.208 76.3298 283.687 72.9833C281.167 69.6369 277.422 67.4267 273.275 66.8376C273.224 66.8329 273.173 66.8313 273.122 66.8329H273.128Z" fill="#371A45"/>
<g opacity="0.35">
<path d="M286.062 92.7686L285.068 99.8471C284.464 104.122 282.188 107.982 278.74 110.58C275.292 113.177 270.953 114.299 266.678 113.699C266.271 113.64 265.904 113.422 265.656 113.093C265.409 112.765 265.302 112.352 265.358 111.944L267.01 100.176C267.093 100.463 267.257 100.721 267.482 100.917C267.707 101.114 267.984 101.242 268.28 101.286L269.33 101.431C272.673 101.901 276.08 101.321 279.078 99.7684C282.076 98.2164 284.517 95.77 286.062 92.7686Z" fill="#371A45"/>
</g>
<path d="M268.962 116.526C268.076 116.525 267.191 116.463 266.313 116.339C265.207 116.182 264.207 115.593 263.535 114.7C262.863 113.807 262.573 112.684 262.729 111.578L268.962 67.317C269.119 66.2105 269.708 65.2113 270.601 64.5392C271.494 63.8671 272.617 63.5769 273.724 63.7325C278.696 64.4366 283.185 67.0861 286.205 71.0988C289.225 75.1115 290.528 80.159 289.827 85.1319L287.702 100.226C287.059 104.741 284.811 108.874 281.37 111.868C277.928 114.862 273.524 116.515 268.962 116.526ZM268.157 111.177C271.569 111.373 274.929 110.28 277.574 108.115C280.218 105.95 281.953 102.872 282.435 99.4885L284.56 84.3963C285.032 81.0109 284.217 77.5715 282.273 74.7593C280.33 71.947 277.402 69.9673 274.068 69.2121L268.157 111.177Z" fill="#371A45"/>
<path d="M127.245 45.798C127.447 45.8261 127.641 45.8938 127.817 45.9971C127.993 46.1004 128.146 46.2373 128.269 46.4C128.391 46.5627 128.481 46.748 128.532 46.9453C128.583 47.1426 128.594 47.348 128.565 47.5497L122.332 91.8103C122.273 92.2171 122.056 92.5842 121.728 92.8317C121.4 93.0792 120.987 93.1871 120.58 93.1319C116.304 92.5297 112.443 90.254 109.846 86.8053C107.248 83.3566 106.127 79.0174 106.728 74.742L108.854 59.6497C109.152 57.5325 109.864 55.4946 110.949 53.6526C112.035 51.8105 113.472 50.2004 115.18 48.914C116.888 47.6277 118.833 46.6905 120.903 46.1558C122.973 45.6212 125.128 45.4996 127.245 45.798Z" fill="white"/>
<path d="M120.798 93.6252C120.703 93.6251 120.609 93.6189 120.515 93.6065C118.335 93.2997 116.238 92.5667 114.342 91.4493C112.446 90.3319 110.789 88.8519 109.465 87.094C108.141 85.3361 107.177 83.3346 106.626 81.2039C106.076 79.0731 105.951 76.8549 106.258 74.6757L108.382 59.5819C108.689 57.4027 109.422 55.3053 110.539 53.4094C111.656 51.5136 113.136 49.8564 114.894 48.5325C116.652 47.2086 118.654 46.2439 120.784 45.6936C122.915 45.1432 125.133 45.018 127.313 45.325C127.577 45.3617 127.831 45.4502 128.061 45.5854C128.291 45.7206 128.491 45.8998 128.652 46.1128C128.812 46.3257 128.929 46.5683 128.996 46.8265C129.062 47.0847 129.077 47.3535 129.039 47.6175L122.805 91.8781C122.738 92.3626 122.498 92.8063 122.129 93.1274C121.76 93.4485 121.287 93.6253 120.798 93.6252ZM124.942 46.1136C121.139 46.1233 117.466 47.504 114.598 50.0025C111.731 52.501 109.86 55.9496 109.329 59.7159L107.204 74.8082C106.914 76.863 107.032 78.9547 107.551 80.9638C108.07 82.973 108.98 84.8602 110.228 86.5178C111.477 88.1754 113.039 89.5709 114.827 90.6246C116.614 91.6783 118.592 92.3696 120.647 92.6589C120.787 92.6789 120.929 92.6712 121.065 92.636C121.202 92.6009 121.33 92.5392 121.443 92.4543C121.556 92.3694 121.651 92.2632 121.722 92.1415C121.793 92.0199 121.84 91.8854 121.859 91.7457L128.093 47.485C128.114 47.3455 128.106 47.2033 128.071 47.0667C128.036 46.9301 127.975 46.8018 127.89 46.6891C127.805 46.5764 127.699 46.4816 127.577 46.4101C127.456 46.3386 127.321 46.2919 127.182 46.2726C126.44 46.1671 125.691 46.1139 124.942 46.1136Z" fill="#371A45"/>
<g opacity="0.35">
<path d="M124.066 79.5322L122.337 91.8114C122.277 92.2188 122.06 92.5863 121.731 92.8336C121.401 93.0809 120.988 93.188 120.58 93.1315C118.463 92.8339 116.425 92.122 114.583 91.0367C112.742 89.9513 111.132 88.5136 109.846 86.8058C108.559 85.098 107.623 83.1535 107.088 81.0835C106.554 79.0134 106.433 76.8584 106.732 74.7415L107.628 68.3813C108.51 71.3831 110.239 74.067 112.606 76.1122C114.974 78.1574 117.881 79.4773 120.979 79.914L122.595 80.14C122.872 80.1794 123.155 80.1438 123.414 80.037C123.673 79.9301 123.898 79.7558 124.066 79.5322Z" fill="#371A45"/>
</g>
<path d="M120.8 95.8094C120.602 95.8092 120.405 95.7952 120.209 95.7674C115.235 95.0667 110.743 92.4186 107.721 88.4058C104.699 84.3929 103.394 79.344 104.095 74.3695L106.221 59.2773C106.567 56.814 107.396 54.4433 108.659 52.3002C109.922 50.1572 111.595 48.284 113.582 46.7874C115.569 45.2909 117.831 44.2004 120.239 43.5782C122.648 42.956 125.155 42.8143 127.618 43.1611C128.167 43.2376 128.694 43.4215 129.171 43.7022C129.648 43.983 130.065 44.3551 130.398 44.7972C130.731 45.2393 130.974 45.7428 131.112 46.2788C131.25 46.8147 131.281 47.3727 131.203 47.9207L124.969 92.1813C124.826 93.1862 124.326 94.106 123.561 94.7723C122.795 95.4386 121.815 95.8068 120.8 95.8094ZM124.947 48.2978C121.67 48.3065 118.505 49.4964 116.033 51.6492C113.562 53.8021 111.949 56.7737 111.491 60.0191L109.375 75.1114C108.898 78.4975 109.712 81.9391 111.656 84.7525C113.6 87.5659 116.531 89.5452 119.867 90.2971L125.778 48.3228C125.496 48.3056 125.221 48.2978 124.947 48.2978Z" fill="#371A45"/>
<path d="M196.97 155.92C239.037 155.92 273.139 121.818 273.139 79.7513C273.139 37.6844 239.037 3.58252 196.97 3.58252C154.903 3.58252 120.801 37.6844 120.801 79.7513C120.801 121.818 154.903 155.92 196.97 155.92Z" fill="white"/>
<path d="M196.986 156.406C191.59 156.404 186.21 155.832 180.934 154.7C139.608 145.854 113.184 105.034 122.024 63.7083C130.863 22.3823 171.686 -4.04474 213.015 4.79804C254.344 13.6408 280.767 54.465 271.925 95.791C264.225 131.731 232.348 156.406 196.986 156.406ZM196.955 4.05309C162.031 4.05309 130.564 28.4136 122.957 63.9078C114.222 104.72 140.317 145.028 181.127 153.765C221.937 162.501 262.247 136.406 270.989 95.5947C279.73 54.7829 253.629 14.4746 212.819 5.7378C207.607 4.62063 202.292 4.05594 196.961 4.05309H196.955Z" fill="#371A45"/>
<g opacity="0.35">
<path d="M272.944 85.2317C272.691 88.75 272.193 92.2464 271.453 95.6952C262.641 136.828 222.158 163.035 181.026 154.235C139.893 145.434 113.685 104.942 122.486 63.8073C122.739 62.6244 123.019 61.4462 123.326 60.293C120.586 97.6231 145.72 132.198 183.357 140.255C223.307 148.805 262.637 124.331 272.944 85.2317Z" fill="#371A45"/>
</g>
<path d="M196.987 158.591C191.434 158.589 185.897 158 180.468 156.835C137.963 147.736 110.787 105.756 119.885 63.2514C128.983 20.7471 170.967 -6.43108 213.47 2.66729C255.973 11.7657 283.151 53.7478 274.052 96.252C266.142 133.217 233.356 158.591 196.987 158.591ZM196.961 6.23775C163.045 6.23775 132.478 29.8938 125.098 64.3688C116.615 104.002 141.956 143.148 181.59 151.632C221.223 160.117 260.371 134.774 268.855 95.1408C277.339 55.5073 251.991 16.3585 212.357 7.87415C207.297 6.78869 202.136 6.24019 196.961 6.23775Z" fill="#371A45"/>
<path d="M270.803 97.5562C267.904 112.178 260.466 124.809 250.122 134.43C242.367 141.642 214.433 151.417 183.486 145.57C154.795 140.148 131.765 119.708 127.35 110.083C121.461 97.2429 119.402 82.7273 122.305 68.1073C129.979 29.4182 166.399 19.9708 207.403 28.1044C248.406 36.2381 278.469 58.8671 270.803 97.5562Z" fill="#371A45"/>
<g opacity="0.5">
<path d="M256.814 91.1046C259.541 84.1777 257.683 76.9605 252.664 74.9844C247.644 73.0083 241.365 77.0217 238.638 83.9485C235.911 90.8754 237.769 98.0927 242.788 100.069C247.807 102.045 254.086 98.0314 256.814 91.1046Z" fill="white"/>
</g>
<g opacity="0.5">
<path d="M235.41 113.992C237.089 111.016 236.379 107.435 233.825 105.994C231.271 104.553 227.84 105.798 226.161 108.774C224.482 111.75 225.191 115.331 227.745 116.772C230.299 118.212 233.731 116.968 235.41 113.992Z" fill="white"/>
</g>
<g opacity="0.35">
<path d="M263.52 58.5991C270.879 69.0611 273.882 82.0152 270.803 97.5609C267.902 112.184 260.462 124.816 250.123 134.438C242.367 141.649 214.434 151.425 183.485 145.577C172.558 143.516 162.458 139.273 153.888 134.275C192.078 140.65 226.137 128.607 235.753 119.66C248.883 107.451 258.323 91.4159 261.999 72.8623C262.948 68.1654 263.457 63.3904 263.52 58.5991Z" fill="#111A28"/>
</g>
<path d="M271.144 64.7286C270.796 64.729 270.453 64.6527 270.138 64.5051C269.823 64.3574 269.545 64.1422 269.322 63.8746L269.117 63.6361L268.976 63.3244C259.948 43.3074 237.749 28.452 208.07 22.5657C178.227 16.6435 152.001 22.2384 136.112 37.901L135.93 38.0569C135.454 38.4673 134.835 38.6721 134.209 38.6263C133.583 38.5804 133 38.2875 132.59 37.8122C132.179 37.3369 131.975 36.718 132.02 36.0916C132.066 35.4653 132.359 34.8828 132.835 34.4724C149.862 17.7251 177.616 11.6875 208.991 17.9105C240.134 24.0883 263.537 39.885 273.239 61.2485C273.432 61.6096 273.527 62.0144 273.517 62.4236C273.506 62.8327 273.39 63.2322 273.179 63.5828C272.968 63.9335 272.669 64.2234 272.313 64.4242C271.956 64.6251 271.554 64.7299 271.144 64.7286Z" fill="#371A45"/>
<g opacity="0.5">
<path d="M134.416 94.4304C134.416 94.4304 130.003 53.8883 153.585 42.7577C177.168 31.6271 206.756 37.5571 205.688 39.3135C205.688 39.3135 171.354 40.7473 153.398 64.1057C139.551 82.1232 134.416 94.4304 134.416 94.4304Z" fill="white"/>
</g>
<path d="M252.37 328.546C253.41 328.546 254.253 327.703 254.253 326.663C254.253 325.623 253.41 324.78 252.37 324.78C251.331 324.78 250.488 325.623 250.488 326.663C250.488 327.703 251.331 328.546 252.37 328.546Z" fill="#371A45"/>
<g opacity="0.3">
<path d="M210.85 240.357C210.85 240.357 237.056 231.22 258.737 253.253C278.662 273.502 255.373 293.482 255.373 293.482C255.373 293.482 262.542 321.075 243.916 324.614C228.102 327.619 213.811 312.333 215.638 293.423C217.14 277.872 220.555 279.322 219.297 270.792C217.873 261.13 197.288 258.962 197.288 258.962H189.546C189.546 258.962 168.962 261.144 167.537 270.792C166.279 279.322 169.694 277.872 171.196 293.423C173.023 312.333 158.729 327.619 142.918 324.614C124.285 321.075 131.462 293.482 131.462 293.482C131.462 293.482 108.172 273.502 128.097 253.253C149.778 231.212 175.984 240.357 175.984 240.357H210.85Z" fill="#371A45"/>
</g>
<path d="M214.54 232.365C214.54 232.365 246.294 213.855 272.565 240.555C296.703 265.09 268.494 289.293 268.494 289.293C268.494 289.293 277.191 322.728 254.611 327.017C235.442 330.656 218.134 312.135 220.347 289.221C222.167 270.379 226.303 272.134 224.779 261.801C223.054 250.1 198.112 247.463 198.112 247.463H188.73C188.73 247.463 163.795 250.099 162.063 261.801C160.539 272.134 164.677 270.373 166.495 289.221C168.71 312.131 151.394 330.656 132.232 327.017C109.653 322.728 118.349 289.293 118.349 289.293C118.349 289.293 90.1302 265.083 114.272 240.548C140.544 213.849 172.298 232.359 172.298 232.359" fill="white"/>
<g opacity="0.35">
<path d="M266.797 319.576C264.471 323.07 260.663 325.877 254.609 327.024C235.439 330.665 218.128 312.138 220.342 289.227C222.163 270.383 226.297 272.138 224.776 261.808C223.05 250.107 198.105 247.47 198.105 247.47H188.723C188.723 247.47 163.787 250.104 162.059 261.808C160.531 272.138 164.672 270.38 166.493 289.227C168.707 312.136 151.389 330.665 132.226 327.024C126.172 325.877 122.364 323.07 120.038 319.576C120.204 319.609 120.371 319.642 120.538 319.67C143.362 323.61 163.985 304.063 161.351 279.245C159.179 258.841 154.251 260.742 156.071 249.546C158.125 236.877 187.83 234.024 187.83 234.024H199.005C199.005 234.024 228.71 236.877 230.764 249.546C232.578 260.742 227.647 258.841 225.484 279.245C222.85 304.063 243.473 323.61 266.297 319.67C266.469 319.642 266.624 319.609 266.797 319.576Z" fill="#371A45"/>
</g>
<path d="M214.129 231.657C218.367 228.744 223.083 226.773 228.032 225.423C230.518 224.753 233.052 224.275 235.611 223.993C238.196 223.743 240.796 223.691 243.388 223.837C245.992 223.982 248.578 224.429 251.129 225.012C253.68 225.595 256.15 226.514 258.572 227.505C263.358 229.65 267.744 232.6 271.615 236.041C275.454 239.454 278.924 243.548 281.415 248.281C282.646 250.683 283.572 253.229 284.173 255.86C284.724 258.516 284.901 261.235 284.7 263.939C284.306 269.338 282.453 274.459 279.859 278.982C278.562 281.238 277.092 283.391 275.463 285.421C274.648 286.428 273.811 287.418 272.923 288.364C272.48 288.841 272.03 289.308 271.565 289.766C271.101 290.225 270.652 290.661 270.085 291.158L270.864 288.677C271.314 290.511 271.615 292.204 271.885 293.976C272.154 295.748 272.337 297.5 272.453 299.275C272.721 302.872 272.597 306.487 272.083 310.058C271.8 311.889 271.369 313.695 270.794 315.456C270.178 317.263 269.367 318.996 268.373 320.626C267.31 322.276 266.02 323.768 264.54 325.058C263.022 326.311 261.331 327.337 259.52 328.106C257.743 328.814 255.89 329.313 253.998 329.593C253.077 329.761 252.137 329.805 251.204 329.891C250.269 329.902 249.334 329.956 248.398 329.88C246.522 329.797 244.66 329.515 242.844 329.038C241.029 328.582 239.265 327.943 237.58 327.129C230.817 323.916 225.495 318.286 222.151 311.802C218.8 305.29 217.346 297.891 217.787 290.652C217.888 288.809 218.117 287.122 218.314 285.37L218.688 282.756L219.155 280.143C219.515 278.402 219.903 276.653 220.419 274.938C220.907 273.223 221.521 271.535 221.978 270.027C222.432 268.624 222.658 267.158 222.648 265.683C222.654 265.304 222.641 264.925 222.607 264.547C222.582 264.164 222.565 263.782 222.506 263.383L222.361 262.197C222.286 261.885 222.246 261.592 222.157 261.295C221.459 258.944 219.196 256.867 216.495 255.354C213.794 253.84 210.691 252.704 207.531 251.821C204.358 250.95 201.126 250.31 197.86 249.905L198.117 249.918H188.735L188.994 249.905C185.728 250.31 182.496 250.95 179.322 251.821C176.162 252.7 173.068 253.817 170.358 255.354C167.648 256.89 165.396 258.938 164.698 261.295C164.609 261.592 164.568 261.882 164.492 262.197L164.347 263.383C164.288 263.782 164.271 264.162 164.247 264.547C164.213 264.925 164.198 265.304 164.205 265.683C164.195 267.158 164.421 268.624 164.877 270.027C165.335 271.535 165.949 273.225 166.435 274.938C166.95 276.652 167.338 278.402 167.699 280.143L168.167 282.756L168.539 285.37C168.736 287.122 168.965 288.809 169.066 290.652C169.51 297.891 168.058 305.29 164.702 311.802C161.356 318.286 156.032 323.916 149.273 327.129C147.588 327.942 145.825 328.582 144.01 329.038C142.193 329.515 140.331 329.797 138.454 329.88C137.519 329.956 136.584 329.902 135.649 329.891C134.714 329.805 133.779 329.761 132.855 329.593C130.963 329.313 129.11 328.814 127.333 328.106C125.522 327.337 123.831 326.31 122.313 325.058C120.833 323.768 119.543 322.276 118.48 320.626C117.487 318.996 116.675 317.262 116.059 315.456C115.486 313.694 115.055 311.889 114.77 310.058C114.256 306.487 114.132 302.872 114.399 299.275C114.517 297.497 114.706 295.731 114.968 293.976C115.238 292.202 115.539 290.51 115.989 288.677L116.768 291.158C116.201 290.661 115.763 290.237 115.288 289.766C114.812 289.296 114.373 288.831 113.93 288.364C113.042 287.418 112.205 286.428 111.39 285.421C109.761 283.391 108.291 281.238 106.994 278.982C104.405 274.462 102.539 269.339 102.162 263.939C101.969 261.236 102.155 258.519 102.716 255.868C103.318 253.242 104.247 250.701 105.479 248.305C107.999 243.598 111.484 239.541 115.338 236.166C119.196 232.737 123.537 229.753 128.312 227.607C133.059 225.425 138.211 224.022 143.429 223.645C146.031 223.47 148.642 223.502 151.239 223.743C153.813 224.009 156.362 224.472 158.866 225.127C161.342 225.805 163.76 226.682 166.094 227.752C168.419 228.835 170.637 230.06 172.707 231.648C172.864 231.767 172.973 231.939 173.015 232.131C173.057 232.324 173.028 232.526 172.933 232.699C172.839 232.873 172.686 233.006 172.501 233.076C172.316 233.146 172.113 233.148 171.927 233.08L171.876 233.063C167.33 231.482 162.657 230.291 157.909 229.503C155.571 229.114 153.208 228.9 150.865 228.748C149.689 228.733 148.516 228.663 147.349 228.715C146.764 228.732 146.178 228.73 145.595 228.76L143.85 228.886C139.202 229.263 134.645 230.388 130.355 232.215C128.207 233.14 126.143 234.252 124.188 235.536C122.211 236.814 120.341 238.25 118.595 239.828C115.01 242.961 111.982 246.558 109.822 250.582C108.785 252.586 108 254.712 107.484 256.909C107.023 259.104 106.87 261.352 107.029 263.589C107.341 268.079 108.915 272.505 111.228 276.544C112.398 278.577 113.723 280.517 115.191 282.346C115.931 283.261 116.693 284.162 117.496 285.018C117.897 285.448 118.303 285.87 118.716 286.28C119.129 286.69 119.572 287.114 119.935 287.432L121.076 288.432L120.713 289.913C120.348 291.404 120.038 293.086 119.798 294.697C119.558 296.309 119.379 297.97 119.271 299.605C119.028 302.843 119.136 306.097 119.594 309.311C119.836 310.865 120.201 312.397 120.685 313.893C121.175 315.329 121.818 316.709 122.603 318.007C123.399 319.237 124.361 320.351 125.461 321.318C126.592 322.242 127.847 323.003 129.189 323.577C130.598 324.131 132.065 324.522 133.562 324.743C134.326 324.888 135.102 324.915 135.872 324.991C136.651 324.991 137.42 325.049 138.191 324.98C139.738 324.914 141.274 324.681 142.771 324.287C144.28 323.908 145.746 323.377 147.146 322.7C152.796 320.021 157.407 315.21 160.324 309.553C163.242 303.896 164.532 297.366 164.144 290.941C164.062 289.363 163.833 287.655 163.649 286.004L163.296 283.534L162.866 281.09C162.53 279.479 162.178 277.883 161.707 276.317C161.236 274.751 160.697 273.2 160.148 271.44C159.558 269.575 159.262 267.63 159.271 265.674C159.257 265.183 159.291 264.716 159.322 264.245C159.354 263.774 159.377 263.3 159.442 262.853L159.611 261.489C159.715 260.969 159.812 260.409 159.969 259.889C160.61 257.774 161.856 255.966 163.268 254.548C164.68 253.13 166.278 252.02 167.9 251.091C171.156 249.251 174.564 248.048 177.99 247.091C181.423 246.146 184.921 245.455 188.455 245.024L188.566 245.01H198.241L198.353 245.024C201.887 245.455 205.384 246.146 208.816 247.091C212.245 248.048 215.65 249.251 218.907 251.091C220.528 252.026 222.119 253.117 223.538 254.548C224.956 255.979 226.196 257.774 226.837 259.889C226.993 260.409 227.093 260.969 227.195 261.489L227.364 262.853C227.429 263.3 227.454 263.774 227.484 264.245C227.513 264.716 227.549 265.18 227.535 265.674C227.544 267.63 227.248 269.575 226.658 271.44C226.115 273.208 225.556 274.736 225.099 276.317C224.643 277.897 224.276 279.479 223.941 281.09L223.51 283.534L223.157 286.004C222.972 287.655 222.744 289.363 222.662 290.941C222.268 297.366 223.563 303.877 226.483 309.553C229.404 315.229 234.011 320.021 239.66 322.7C241.06 323.377 242.526 323.908 244.035 324.287C245.532 324.681 247.068 324.914 248.615 324.98C249.387 325.049 250.161 324.994 250.934 324.991C251.704 324.915 252.48 324.888 253.244 324.743C254.741 324.523 256.208 324.132 257.617 323.577C258.96 323.002 260.215 322.242 261.346 321.318C262.446 320.35 263.407 319.237 264.203 318.007C264.988 316.709 265.631 315.329 266.121 313.893C266.606 312.397 266.971 310.865 267.212 309.311C267.671 306.097 267.779 302.843 267.537 299.605C267.427 297.967 267.251 296.332 267.008 294.697C266.765 293.063 266.46 291.404 266.093 289.913L265.73 288.432L266.871 287.432C267.234 287.12 267.689 286.681 268.09 286.28C268.49 285.88 268.911 285.448 269.31 285.018C270.113 284.162 270.869 283.261 271.615 282.346C273.083 280.517 274.408 278.577 275.578 276.544C277.888 272.505 279.474 268.08 279.769 263.587C279.919 261.352 279.757 259.107 279.287 256.917C278.764 254.727 277.973 252.609 276.931 250.613C274.749 246.617 271.687 243.071 268.108 239.954C264.61 236.845 260.671 234.268 256.42 232.309C252.161 230.397 247.621 229.187 242.975 228.724C238.317 228.239 233.557 228.465 228.843 229.229C224.083 230.006 219.421 231.292 214.937 233.066L214.88 233.088C214.693 233.163 214.485 233.166 214.295 233.097C214.106 233.028 213.948 232.891 213.853 232.713C213.758 232.535 213.732 232.329 213.78 232.133C213.828 231.937 213.946 231.765 214.112 231.651L214.129 231.657Z" fill="#371A45"/>
<path d="M269.43 291.58L267.741 292.118C267.118 292.294 266.494 292.456 265.858 292.576C264.612 292.825 263.347 292.97 262.076 293.008C259.618 293.067 257.162 292.827 254.762 292.293C252.442 291.746 250.172 291.007 247.975 290.083C246.884 289.651 245.837 289.098 244.775 288.614C243.737 288.074 242.718 287.502 241.696 286.952C242.804 287.316 243.899 287.698 245.001 288.043C246.125 288.329 247.222 288.685 248.35 288.911C250.567 289.414 252.822 289.731 255.091 289.858C257.289 289.955 259.491 289.783 261.647 289.349C262.683 289.133 263.698 288.83 264.682 288.443C265.166 288.258 265.635 288.041 266.1 287.82L267.619 287.019C267.907 286.851 268.226 286.744 268.556 286.703C268.886 286.661 269.222 286.687 269.542 286.779C269.862 286.871 270.16 287.027 270.418 287.237C270.676 287.447 270.89 287.707 271.045 288.001C271.2 288.296 271.294 288.618 271.322 288.95C271.349 289.282 271.309 289.616 271.203 289.932C271.098 290.248 270.93 290.539 270.71 290.788C270.489 291.038 270.22 291.24 269.92 291.382C269.795 291.448 269.665 291.503 269.532 291.548L269.43 291.58Z" fill="#371A45"/>
<path d="M119.471 287.015L120.992 287.817C121.459 288.043 121.927 288.259 122.408 288.44C123.392 288.827 124.408 289.13 125.443 289.345C127.6 289.78 129.801 289.951 131.999 289.855C134.269 289.728 136.524 289.411 138.741 288.907C139.868 288.682 140.965 288.326 142.089 288.039C143.191 287.693 144.286 287.312 145.394 286.948C144.372 287.499 143.354 288.071 142.315 288.611C141.253 289.094 140.211 289.648 139.115 290.079C136.918 291.004 134.648 291.743 132.328 292.289C129.928 292.824 127.472 293.064 125.014 293.005C123.744 292.967 122.479 292.822 121.233 292.573C120.601 292.453 119.972 292.291 119.349 292.115L117.661 291.577L117.572 291.549C117.262 291.452 116.974 291.295 116.724 291.086C116.475 290.877 116.269 290.621 116.119 290.333C115.969 290.044 115.877 289.729 115.849 289.405C115.821 289.081 115.857 288.755 115.956 288.445C116.054 288.135 116.213 287.847 116.423 287.599C116.633 287.351 116.89 287.146 117.18 286.997C117.469 286.849 117.785 286.759 118.109 286.732C118.433 286.706 118.759 286.744 119.069 286.844C119.207 286.89 119.341 286.948 119.471 287.015Z" fill="#371A45"/>
<path d="M281.232 271.419C280.958 271.418 280.687 271.356 280.44 271.238C280.192 271.119 279.975 270.947 279.802 270.734C279.63 270.521 279.507 270.272 279.442 270.005C279.378 269.738 279.374 269.46 279.431 269.192C280.278 265.232 279.661 262.424 277.542 260.606C268.755 253.066 237.177 262.698 225.754 267.046C225.297 267.22 224.791 267.205 224.345 267.005C223.9 266.805 223.552 266.436 223.379 265.98C223.205 265.524 223.22 265.017 223.42 264.572C223.62 264.126 223.988 263.778 224.445 263.605C228.858 261.925 267.915 247.493 279.939 257.81C283.132 260.55 284.172 264.638 283.031 269.967C282.942 270.378 282.715 270.746 282.388 271.01C282.061 271.275 281.653 271.419 281.232 271.419Z" fill="#371A45"/>
<path d="M106.342 271.419C105.922 271.418 105.514 271.274 105.187 271.01C104.86 270.746 104.633 270.377 104.544 269.967C103.403 264.641 104.444 260.553 107.636 257.81C119.661 247.493 158.718 261.925 163.131 263.605C163.357 263.691 163.564 263.821 163.74 263.987C163.916 264.153 164.057 264.352 164.156 264.572C164.255 264.793 164.309 265.031 164.316 265.272C164.323 265.514 164.283 265.755 164.197 265.981C164.11 266.207 163.981 266.414 163.815 266.589C163.649 266.765 163.45 266.907 163.229 267.005C163.009 267.104 162.771 267.159 162.529 267.166C162.287 267.173 162.047 267.132 161.821 267.046C150.394 262.699 118.807 253.07 110.034 260.606C107.915 262.425 107.297 265.233 108.145 269.192C108.202 269.461 108.198 269.738 108.133 270.005C108.069 270.272 107.946 270.521 107.773 270.734C107.601 270.948 107.383 271.12 107.135 271.238C106.887 271.357 106.617 271.418 106.342 271.419Z" fill="#371A45"/>
</svg>
