<svg width="41" height="41" viewBox="0 0 41 41" fill="none" xmlns="http://www.w3.org/2000/svg">
<rect width="41" height="41" rx="7.23529" fill="#2C2C2C"/>
<path d="M29.1637 14.241H25.6597V13.3341C25.6597 12.5921 25.4055 11.9669 24.8971 11.4584C24.3887 10.95 23.7635 10.6958 23.0214 10.6958H19.4762C18.7342 10.6958 18.109 10.95 17.6006 11.4584C17.0921 11.9669 16.8379 12.5921 16.8379 13.3341V14.241H13.3339C12.5919 14.241 11.9667 14.4884 11.4583 14.983C10.9499 15.4777 10.6956 16.1098 10.6956 16.8793V20.3833C10.6956 20.9604 10.9842 21.249 11.5613 21.249V28.2982C11.5613 28.7654 11.74 29.1776 12.0972 29.5349C12.4545 29.8922 12.8667 30.0708 13.3339 30.0708H29.1637C29.6309 30.0708 30.0432 29.8922 30.4004 29.5349C30.7577 29.1776 30.9363 28.7654 30.9363 28.2982V21.249C31.5135 21.249 31.802 20.9604 31.802 20.3833V16.8793C31.802 16.1098 31.5478 15.4777 31.0394 14.983C30.531 14.4884 29.9057 14.241 29.1637 14.241ZM18.6105 13.3341C18.6105 13.0868 18.693 12.8806 18.8579 12.7157C19.0228 12.5509 19.2289 12.4684 19.4762 12.4684H23.0214C23.2688 12.4684 23.4749 12.5509 23.6398 12.7157C23.8047 12.8806 23.8871 13.0868 23.8871 13.3341V14.241H18.6105V13.3341ZM13.3339 28.2982V21.249H18.6105V23.8873C18.6105 24.382 18.7823 24.8011 19.1258 25.1446C19.4694 25.4881 19.8885 25.6599 20.3831 25.6599H22.1145C22.6092 25.6599 23.0283 25.4881 23.3718 25.1446C23.7154 24.8011 23.8871 24.382 23.8871 23.8873V21.249H29.1637V28.2982H13.3339ZM20.3831 23.8873V21.249H22.1145V23.8873H20.3831ZM30.0294 19.5176H12.4683V16.8793C12.4683 16.2747 12.7568 15.9724 13.3339 15.9724H29.1637C29.7409 15.9724 30.0294 16.2747 30.0294 16.8793V19.5176Z" fill="white"/>
</svg>
