<svg width="611" height="785" viewBox="0 0 611 785" fill="none" xmlns="http://www.w3.org/2000/svg">
<path d="M486.456 506.362C489.375 514.305 491.797 522.421 493.71 530.664C458.779 554.937 390.89 587.527 310.486 617.05C230.081 646.574 157.228 665.659 114.891 669.758C111.015 662.236 107.61 654.48 104.697 646.535C104.557 646.156 104.421 645.785 104.289 645.403C103.001 641.851 101.825 638.289 100.759 634.716C98.2735 626.448 96.3166 618.03 94.9005 609.514C94.8426 609.173 94.7846 608.831 94.7339 608.488C89.0217 572.872 92.927 536.378 106.046 502.777C126.469 450.296 168.466 406.503 225.492 385.567C282.051 364.806 341.892 370.737 391.189 396.985C411.595 407.839 430.001 422.093 445.616 439.134C454.12 448.415 461.735 458.475 468.361 469.179C468.909 470.048 469.44 470.922 469.966 471.805C474.399 479.214 478.354 486.898 481.807 494.811C483.109 497.78 484.342 500.795 485.508 503.854C485.831 504.68 486.15 505.52 486.456 506.362Z" fill="#FFB200"/>
<path d="M496.226 609.582C492.947 629.276 486.8 648.383 477.981 666.295C455.718 711.514 416.708 748.577 365.656 767.322C314.495 786.108 260.646 783.042 214.337 762.861C196.137 754.92 179.189 744.372 164.026 731.551C214.682 722.672 273.645 706.686 335.109 684.122C396.572 661.559 451.871 635.591 496.226 609.582Z" fill="#FFB200"/>
<path d="M335.109 684.125C396.565 661.561 451.858 635.591 496.226 609.582C494.868 617.777 493.006 625.88 490.649 633.845C456.416 655.089 402.349 680.458 339.869 703.398C280.023 725.366 224.619 740.652 185.041 747.133C177.709 742.396 170.69 737.192 164.026 731.553C214.682 722.675 273.645 706.691 335.109 684.125Z" fill="#D66B09"/>
<path d="M485.507 503.847C485.831 504.68 486.145 505.518 486.456 506.363C489.375 514.305 491.797 522.422 493.71 530.665C458.779 554.938 390.89 587.527 310.485 617.051C230.081 646.574 157.228 665.66 114.891 669.759C111.014 662.237 107.61 654.481 104.697 646.536C104.557 646.157 104.421 645.785 104.289 645.403C144.26 643.916 218.332 625.715 300.308 595.619C385.499 564.333 455.892 528.77 485.507 503.847Z" fill="#D66B09"/>
<path d="M91.396 577.856L93.0858 564.255C120.606 567.705 194.591 550.013 272.972 521.235C366.48 486.9 427.81 451.909 440.064 435.093L451.144 443.165C434.929 465.418 365.227 501.964 277.699 534.102C196.225 564.024 121.34 581.61 91.396 577.856Z" fill="#D66B09"/>
<path d="M106.554 509.624L105.53 495.953C136.954 493.607 192.194 479.029 249.728 457.908C309.999 435.779 362.6 410.352 387.004 391.568L395.366 402.431C369.937 422.012 315.944 448.202 254.454 470.778C195.822 492.289 139.15 507.176 106.554 509.624Z" fill="#D66B09"/>
<path d="M94.1958 615.322L95.2628 601.653C126.971 604.123 203.428 585.53 285.522 555.388C371.633 523.765 444.672 486.492 463.137 464.734L473.59 473.604C453.43 497.353 379.751 535.391 290.249 568.255C205.157 599.495 128.212 617.97 94.1958 615.322Z" fill="#D66B09"/>
<path d="M214.331 766.288V762.873L212.959 759.722L213.614 759.437H214.338C241.911 759.464 295.449 746.37 350.709 726.078C406.282 705.672 454.203 681.761 475.775 663.673L480.178 668.926C458.041 687.487 409.338 711.85 353.072 732.511C296.251 753.373 243.089 766.317 214.331 766.288Z" fill="#D66B09"/>
<path d="M295.745 784.566C247.127 784.566 199.109 767.58 160.907 735.24L153.04 728.577L163.193 726.795C215.382 717.646 274.253 701.323 333.443 679.591C392.633 657.86 448.078 632.209 493.783 605.413L502.676 600.201L500.986 610.369C488.735 684.202 437.517 746.081 367.319 771.856C344.394 780.268 320.165 784.571 295.745 784.566ZM175.285 734.404C228.981 775.201 300.332 786.168 363.988 762.793C427.643 739.418 474.949 684.893 489.479 619.043C445.131 644.197 392.582 668.163 336.767 688.656C280.952 709.149 225.381 724.886 175.29 734.404H175.285Z" fill="#371A45"/>
<path d="M604.678 493.643C614.945 521.605 571.155 565.653 496.221 609.581C451.853 635.59 396.56 661.56 335.104 684.124C273.647 706.688 214.677 722.674 164.021 731.553C78.4657 746.554 16.5844 741.305 6.31754 713.341C-3.00786 687.946 32.2394 649.302 94.8907 609.514C96.3068 618.031 98.2637 626.448 100.75 634.716C83.3396 646.953 74.4704 657.022 76.8265 663.443C79.2285 669.98 92.9692 671.876 114.881 669.758C157.219 665.655 230.074 646.584 310.476 617.05C390.877 587.517 458.774 554.937 493.701 530.664C511.77 518.111 521.02 507.767 518.618 501.228C516.265 494.816 502.985 492.87 481.797 494.804C478.344 486.891 474.389 479.207 469.956 471.798C543.48 461.585 595.36 468.247 604.678 493.643Z" fill="#FFC536"/>
<path d="M95.1396 621.07L96.6967 623.368C81.0948 633.65 68.9353 642.985 59.6992 651.308C66.7965 642.374 78.5866 632.337 95.1396 621.07Z" fill="#FF9100"/>
<path d="M98.2587 625.649L96.6968 623.368C96.9599 623.175 97.2641 622.989 97.5659 622.803L98.2587 625.649Z" fill="#FF9100"/>
<path d="M545.134 494.812C542.551 487.811 535.577 483.176 523.989 480.868C512.781 478.65 497.256 478.621 477.259 480.762L477.556 483.514L478.437 491.808C516.595 487.724 532.511 492.656 534.725 498.645C538.396 508.656 511.772 535.495 444.597 570.714C407.047 590.395 361.996 610.062 314.341 627.566C286.302 637.86 258.456 647.007 231.865 654.647C213.26 660.037 195.269 664.684 178.247 668.508C104.245 685.136 66.5814 681.909 62.8976 671.873C60.7394 666.017 69.3503 652.32 99.7623 631.318C100.286 630.948 100.832 630.594 101.377 630.215L98.2559 625.628L96.6964 623.347L95.1394 621.051C78.5864 632.315 66.7962 642.352 59.699 651.287C52.2589 660.576 49.9149 668.656 52.4883 675.685C55.0085 682.524 61.8402 686.775 71.5736 689.098C96.962 695.154 142.008 688.006 180.668 679.313C198.173 675.386 216.676 670.584 235.817 665.042C262.398 657.36 290.181 648.218 318.155 637.949C366.264 620.288 411.764 600.418 449.758 580.524C498.278 555.097 554.225 519.563 545.134 494.812Z" fill="#FFEC90"/>
<path d="M578.957 492.156C569.434 466.227 516.089 467.364 473.037 472.901L474.444 483.904C475.489 483.777 476.532 483.646 477.556 483.513C496.173 481.242 511.526 480.496 523.99 480.858C552.328 481.72 565.74 488.356 568.55 495.977C573.591 509.737 550.759 541.827 469.734 586.969C427.858 610.308 377.34 633.077 323.613 652.79C299.038 661.804 274.562 669.908 250.762 676.93C222.468 685.295 195.117 692.117 169.6 697.172C78.6227 715.19 40.4497 705.508 35.3923 691.748C32.5872 684.107 38.5547 670.335 59.6992 651.308C68.9352 642.984 81.0947 633.649 96.6966 623.368C96.9621 623.175 97.2639 622.989 97.5657 622.801C98.133 622.422 98.7196 622.045 99.311 621.649L96.3031 617.019L93.2687 612.341C56.8603 635.998 15.4452 669.628 24.9878 695.562C28.6716 705.597 38.7695 711.642 52.4885 714.915C84.7785 722.599 136.999 714.937 171.742 708.054C202.24 702.019 235.303 693.483 269.392 682.888C288.503 676.959 307.927 670.391 327.413 663.224C381.685 643.298 432.759 620.288 475.12 596.669C519.222 572.091 591.336 525.855 578.957 492.156Z" fill="#FFEC90"/>
<path d="M81.7829 744.635C37.0727 744.635 8.97336 734.573 1.78921 715.007C-8.2097 687.772 23.9355 648.863 92.3154 605.439L98.4711 601.529L99.6782 608.722C101.062 617.037 102.973 625.254 105.399 633.326L106.401 636.662L103.55 638.666C79.4655 655.596 81.3629 661.72 81.3846 661.778C81.4064 661.836 83.9942 667.895 114.44 664.952C157.651 660.766 232.15 640.674 308.837 612.52C385.523 584.365 455.318 551.478 490.976 526.701C516.081 509.243 514.15 502.954 514.117 502.894C514.083 502.833 511.577 496.938 482.266 499.613L478.797 499.932L477.401 496.738C474.028 489.017 470.168 481.518 465.843 474.287L462.099 468.03L469.322 467.026C549.55 455.885 599.235 464.752 609.237 491.987C620.172 521.776 579.879 566.158 498.674 613.756C452.481 640.836 396.498 666.739 336.779 688.665C277.061 710.592 217.613 727.073 164.869 736.318C133.047 741.888 105.146 744.635 81.7829 744.635ZM91.456 617.471C33.1257 655.528 3.08554 690.524 10.8539 711.678C19.7544 735.918 78.1281 741.711 163.194 726.797C215.383 717.648 274.254 701.325 333.443 679.593C392.633 657.862 448.078 632.211 493.783 605.415C568.295 561.738 609.053 519.546 600.153 495.306C592.384 474.152 546.834 466.91 477.739 475.639C480.274 480.226 482.642 484.943 484.82 489.711C507.854 487.985 520.065 491.142 523.159 499.565C526.455 508.535 517.972 519.676 496.468 534.631C459.629 560.22 390.733 592.732 312.147 621.584C233.56 650.437 160 670.241 115.355 674.565C89.2833 677.08 75.5982 674.082 72.3055 665.107C69.2131 656.682 76.4866 646.369 95.1663 632.781C93.7372 627.733 92.4964 622.613 91.456 617.471Z" fill="#371A45"/>
<g opacity="0.41">
<path d="M493.711 531.362C489.645 534.187 485.146 537.117 480.211 540.154C478.71 534.682 476.962 529.219 474.978 523.804C474.664 522.961 474.345 522.129 474.029 521.296C472.867 518.238 471.634 515.222 470.331 512.248C466.877 504.336 462.926 496.651 458.502 489.237C457.976 488.359 457.435 487.487 456.894 486.618C450.27 475.91 442.653 465.849 434.142 456.568C418.53 439.53 400.124 425.281 379.718 414.434C330.414 388.184 270.57 382.238 214.014 403.011C176.258 416.874 145.086 440.761 122.404 470.563C146.281 431.645 182.61 401.939 225.495 386.267C282.048 365.506 341.895 371.442 391.184 397.69C411.595 408.542 430.004 422.796 445.621 439.839C454.125 449.117 461.739 459.173 468.363 469.875C468.916 470.746 469.442 471.627 469.966 472.506C474.401 479.911 478.356 487.593 481.807 495.504C483.111 498.48 484.343 501.496 485.505 504.552C485.836 505.387 486.152 506.218 486.454 507.072C489.373 515.011 491.796 523.123 493.711 531.362Z" fill="white"/>
</g>
<path d="M112.093 674.879L110.594 671.982C106.629 664.28 103.143 656.341 100.158 648.208C98.6881 644.206 97.3338 640.136 96.1292 636.109C93.5862 627.647 91.5833 619.032 90.1328 610.315C73.8091 511.903 130.034 415.481 223.824 381.045C317.614 346.609 422.873 383.737 474.108 469.329C478.645 476.915 482.694 484.782 486.232 492.882C487.922 496.73 489.52 500.711 490.987 504.711C493.974 512.842 496.455 521.15 498.415 529.588L499.154 532.777L496.467 534.643C459.629 560.232 390.733 592.744 312.146 621.596C233.56 650.449 160 670.241 115.355 674.565L112.093 674.879ZM295.514 377.922C272.187 377.924 249.044 382.046 227.151 390.098C137.711 422.929 84.0929 514.884 99.6585 608.722C101.042 617.036 102.953 625.254 105.38 633.326C106.529 637.171 107.82 641.051 109.223 644.872C111.692 651.599 114.52 658.188 117.694 664.612C161.339 659.764 234.036 639.977 308.817 612.519C383.599 585.062 451.829 553.105 488.24 528.559C486.503 521.608 484.394 514.754 481.923 508.028C480.525 504.214 478.997 500.419 477.387 496.745C474.012 489.019 470.15 481.514 465.824 474.278C429.22 413.13 363.691 377.922 295.514 377.922Z" fill="#371A45"/>
<g opacity="0.3">
<path d="M243.581 639.808C190.73 656.303 145.057 666.845 114.886 669.761C92.9767 671.878 79.236 669.983 76.8341 663.446C74.478 657.025 83.3519 646.956 100.757 634.719C99.3087 629.917 98.0799 625.097 97.0057 620.271C40.4812 657.8 9.3305 693.728 18.1586 717.774C20.7151 724.738 26.4774 730.29 35.0037 734.474C34.1974 734.245 33.4129 733.991 32.6356 733.75C60.3341 742.532 106.884 741.559 164.026 731.541C214.682 722.662 273.645 706.676 335.109 684.112C339.874 682.363 344.596 680.593 349.274 678.802C176.763 715.896 243.581 639.808 243.581 639.808Z" fill="#371A45"/>
</g>
<g opacity="0.3">
<path d="M248.409 611.779C309.385 610.968 436.732 557.557 489.404 533.581C490.884 532.596 492.332 531.621 493.71 530.665C492.414 525.098 496.631 529.54 494.845 524.019C461.633 540.193 306.032 609.377 236.57 610.299C233.533 610.338 230.499 610.243 227.479 610.033C234.383 611.291 241.392 611.876 248.409 611.779Z" fill="#371A45"/>
</g>
<g opacity="0.3">
<path d="M494.84 524.019C461.628 540.193 306.027 609.376 236.566 610.299C200.114 610.781 163.746 593.304 156.101 557.673C155.961 557.018 155.86 556.466 155.778 556.009C155.72 555.669 155.664 555.326 155.609 554.974C153.617 542.606 152.786 530.079 153.127 517.556C154.114 482.131 164.311 447.573 182.716 417.287C153.895 439.612 131.616 469.285 118.217 503.19C104.819 537.095 100.795 573.981 106.568 609.977C106.611 610.318 106.669 610.658 106.725 610.999C108.145 619.517 110.105 627.936 112.591 636.206C113.651 639.779 114.825 643.341 116.11 646.893C116.25 647.274 116.378 647.641 116.518 648.023C119.101 655.009 122.054 661.853 125.366 668.525C123.639 668.758 121.949 668.975 120.296 669.174C163.266 664.059 233.394 645.357 310.474 617.058C390.878 587.537 458.775 554.94 493.699 530.672C492.426 525.098 496.632 529.54 494.84 524.019Z" fill="#371A45"/>
</g>
<g opacity="0.3">
<path d="M183.561 733.815C192.883 739.845 202.681 745.106 212.858 749.545C259.161 769.726 313.016 772.792 364.176 754.008C415.228 735.263 454.239 698.201 476.501 652.979C481.645 642.544 485.883 631.687 489.17 620.527C490.232 616.937 491.181 613.311 492.043 609.664C448.136 635.148 393.854 660.534 333.629 682.647C277.056 703.42 222.62 718.594 174.81 727.806C177.683 729.878 180.589 731.896 183.561 733.815Z" fill="#371A45"/>
</g>
<path d="M235.224 380.304H353.248C373.985 380.304 390.796 363.493 390.796 342.756V236.91C390.796 216.173 373.985 199.362 353.248 199.362L235.224 199.362C214.487 199.362 197.676 216.173 197.676 236.91L197.676 342.756C197.676 363.493 214.487 380.304 235.224 380.304Z" fill="white"/>
<path d="M390.795 236.29V343.382C390.795 363.686 373.619 380.316 352.615 380.316H235.853C214.851 380.316 197.673 363.696 197.673 343.382V236.29C197.67 230.608 199.03 225.008 201.637 219.959C203.519 216.307 205.992 212.99 208.956 210.144C215.71 203.67 224.579 199.861 233.924 199.421C234.566 199.389 235.211 199.373 235.856 199.373H352.629C367.997 199.373 381.303 208.275 387.346 221.005C388.024 222.437 388.609 223.912 389.096 225.42C390.224 228.933 390.797 232.601 390.795 236.29Z" fill="white"/>
<path d="M353.247 199.363C373.899 199.363 390.795 216.261 390.795 236.911V342.756C390.795 363.408 373.897 380.304 353.247 380.304H235.223C214.571 380.304 197.673 363.406 197.673 342.756V236.911C197.673 216.259 214.571 199.363 235.223 199.363H353.247ZM353.247 191.638H235.223C210.252 191.638 189.94 211.952 189.94 236.92V342.766C189.94 367.734 210.252 388.046 235.223 388.046H353.247C378.215 388.046 398.53 367.734 398.53 342.766V236.911C398.53 211.943 378.215 191.628 353.247 191.628V191.638Z" fill="#371A45"/>
<g opacity="0.3">
<path d="M386.619 241.729L386.12 241.987C386.12 241.746 386.12 241.504 386.12 241.275C386.139 240.951 386.178 240.629 386.238 240.309C386.252 240.223 386.269 240.143 386.291 240.068C386.295 240.034 386.302 240 386.31 239.967C386.332 239.868 386.359 239.774 386.388 239.682C386.417 239.59 386.431 239.52 386.455 239.44C386.466 239.4 386.478 239.361 386.494 239.322C386.523 239.233 386.554 239.143 386.586 239.059C386.617 238.974 386.665 238.851 386.706 238.75C386.682 238.861 386.66 238.972 386.641 239.083C386.598 239.325 386.566 239.566 386.545 239.807C386.493 240.449 386.518 241.094 386.619 241.729Z" fill="#6B184E"/>
</g>
<path d="M241.252 206.03L238.094 214.322L235.414 221.357L233.085 227.479L219.356 263.52C217.133 264.138 214.859 264.698 212.522 265.164C183.192 271.199 144.446 264.824 91.5792 205.538C83.3088 196.268 63.352 190.648 72.0521 169.569C80.9502 148.007 93.4718 150.698 93.4718 150.698C93.4718 150.698 90.1912 140.011 97.2643 134.602C107.246 126.959 119.082 138.28 130.578 146.353C132.212 147.502 131.481 132.016 142.281 132.482C157.731 133.148 156.903 168.41 156.903 168.41C156.903 168.41 177.741 191.293 210.094 201.371C218.749 204.098 227.731 205.649 236.8 205.982C238.265 206.03 239.76 206.05 241.252 206.03Z" fill="white"/>
<g opacity="0.35">
<path d="M219.354 263.518C189.278 271.873 148.666 269.553 91.5817 205.538C83.3137 196.268 63.3569 190.656 72.057 169.569C77.3969 156.615 84.0523 152.43 88.5038 151.126C86.9926 153.419 85.9136 156.418 84.103 159.609C73.9231 177.538 101.795 194.938 109.477 191.757C114.189 189.804 115.848 187.913 118.568 178.904C121.465 169.328 125.965 164.772 126.493 165.369C128.907 168.072 128.963 201.439 134.506 213.167C148.637 243.101 186.695 257.802 214.309 256.52C215.164 256.48 216.017 256.654 216.788 257.026C217.56 257.398 218.226 257.957 218.727 258.652C219.228 259.347 219.548 260.156 219.657 261.006C219.767 261.856 219.663 262.719 219.354 263.518Z" fill="#371A45"/>
</g>
<path d="M195.232 270.814C168.941 270.814 133.723 258.502 88.7421 208.073C86.922 206.031 84.2858 204.066 81.5001 201.987C72.8095 195.508 60.9011 186.634 68.5391 168.121C74.987 152.497 83.5592 148.179 89.0028 147.119C88.6311 142.638 89.2443 135.954 94.9559 131.582C105.761 123.317 117.476 131.99 127.813 139.64L128.779 140.364C130.227 135.565 133.583 128.294 142.449 128.69C159.526 129.414 160.719 158.911 160.729 166.902C166.694 172.903 198.571 202.811 241.207 202.234H241.258C242.267 202.228 243.236 202.622 243.953 203.331C244.671 204.04 245.077 205.004 245.083 206.013C245.089 207.021 244.695 207.991 243.986 208.708C243.277 209.425 242.312 209.832 241.304 209.838C190.658 210.475 155.567 172.597 154.097 170.972C153.438 170.247 153.084 169.296 153.107 168.316C153.349 158.025 150.957 136.649 142.121 136.268C138.341 136.111 136.861 139.128 135.463 144.763C134.882 147.104 134.379 149.127 132.158 149.958C131.538 150.186 130.872 150.26 130.217 150.173C129.561 150.087 128.937 149.842 128.397 149.46C126.708 148.268 124.994 147.005 123.287 145.74C112.424 137.704 105.423 133.144 99.5763 137.612C94.7217 141.325 97.0875 149.511 97.1116 149.593C97.3033 150.227 97.3264 150.9 97.1786 151.546C97.0308 152.192 96.7172 152.788 96.2687 153.275C95.8203 153.763 95.2525 154.125 94.6213 154.326C93.9902 154.527 93.3175 154.56 92.6698 154.421C92.3584 154.375 82.9943 153.031 75.5688 171.023C70.1831 184.07 77.5338 189.548 86.0432 195.887C89.0149 198.101 92.0783 200.389 94.4224 203.008C152.9 268.578 193.156 266.852 218.339 259.852C218.821 259.718 219.323 259.681 219.819 259.741C220.315 259.802 220.794 259.96 221.229 260.205C221.663 260.451 222.045 260.78 222.353 261.174C222.661 261.567 222.888 262.017 223.021 262.499C223.155 262.98 223.193 263.483 223.132 263.978C223.071 264.474 222.913 264.953 222.668 265.388C222.422 265.823 222.093 266.205 221.699 266.512C221.306 266.82 220.856 267.047 220.374 267.181C213.144 269.187 204.775 270.814 195.232 270.814Z" fill="#371A45"/>
<path d="M135.217 145.526L134.363 157.596C134.313 158.308 134.075 158.995 133.672 159.585L133.569 159.737C133.285 160.052 133.02 160.383 132.774 160.729C132.494 161.115 132.222 161.514 131.966 161.936C131.448 162.766 130.984 163.628 130.575 164.517C129.762 166.285 129.226 168.167 128.984 170.098C128.825 171.064 128.878 172.029 128.866 172.995C129.011 173.946 129.038 174.94 129.349 175.892C129.757 177.823 130.73 179.638 131.763 181.429L131.862 181.601C132.107 182.015 132.186 182.506 132.083 182.976C131.979 183.446 131.701 183.858 131.304 184.13C130.907 184.402 130.422 184.513 129.946 184.441C129.471 184.368 129.041 184.118 128.743 183.74C127.222 181.842 125.73 179.8 124.835 177.403C124.284 176.244 124.028 174.989 123.683 173.738C123.495 172.469 123.266 171.182 123.28 169.89C123.23 167.311 123.578 164.738 124.311 162.264C124.674 161.035 125.116 159.83 125.634 158.658C125.89 158.069 126.172 157.487 126.476 156.91C126.802 156.283 127.163 155.675 127.555 155.087L126.761 157.229L127.64 144.818C127.719 143.818 128.19 142.89 128.95 142.235C129.71 141.581 130.699 141.253 131.699 141.324C132.7 141.396 133.632 141.859 134.292 142.614C134.953 143.37 135.288 144.355 135.225 145.357L135.217 145.526Z" fill="#371A45"/>
<path d="M160.714 262.791C160.112 262.792 159.523 262.612 159.024 262.275C158.525 261.938 158.138 261.459 157.913 260.9C157.689 260.341 157.636 259.728 157.763 259.139C157.889 258.551 158.189 258.013 158.624 257.596C179.066 237.98 182.192 190.621 182.221 190.146C182.27 189.345 182.634 188.597 183.234 188.066C183.835 187.534 184.622 187.263 185.422 187.312C186.222 187.36 186.97 187.725 187.502 188.325C188.033 188.926 188.305 189.712 188.256 190.513C188.133 192.553 184.961 240.698 162.815 261.951C162.251 262.494 161.497 262.796 160.714 262.791Z" fill="#371A45"/>
<path d="M424.718 361.938C423.093 397.875 412.104 412.459 398.537 417.06C395.619 418.055 392.549 418.534 389.465 418.477C379.865 418.144 372.896 414.093 372.896 414.093C372.896 414.093 369.359 415.577 366.117 415.264C341.028 412.828 346.752 397.941 351.848 374.087C353.31 367.224 354.728 359.618 355.336 351.357C358.233 312.329 347.321 275.433 347.321 275.433L351.524 240.418L356.203 201.393C356.203 201.393 358.655 203.616 362.638 207.848C366.127 211.546 370.786 216.765 375.985 223.372C397.205 250.277 427.532 300.018 424.718 361.938Z" fill="white"/>
<path d="M390.134 422.292C389.864 422.292 389.598 422.292 389.333 422.277C383.545 422.047 377.86 420.668 372.611 418.219C370.947 418.719 368.345 419.298 365.75 419.045C356.287 418.13 350.276 415.489 346.831 410.741C341.445 403.315 343.821 392.662 346.831 379.175C348.678 370.897 350.768 361.514 351.546 351.071C354.358 313.24 343.79 276.871 343.683 276.509C343.397 275.541 343.507 274.5 343.989 273.614C344.471 272.729 345.285 272.07 346.252 271.784C347.219 271.498 348.26 271.608 349.146 272.09C350.032 272.572 350.69 273.386 350.976 274.353C351.43 275.888 362.049 312.374 359.131 351.636C358.312 362.629 356.157 372.3 354.257 380.831C351.666 392.447 349.619 401.623 352.994 406.275C355.036 409.092 359.449 410.794 366.489 411.477C368.335 411.658 370.694 410.89 371.452 410.581L373.183 409.872L374.815 410.808C374.868 410.837 381.154 414.386 389.601 414.671C392.226 414.72 394.84 414.312 397.325 413.464C411.66 408.602 419.605 391.209 420.937 361.77C423.11 314.052 404.763 273.817 388.98 248.465C371.795 220.846 353.839 204.372 353.658 204.211C352.912 203.532 352.465 202.585 352.417 201.578C352.369 200.57 352.723 199.585 353.401 198.838C354.079 198.092 355.026 197.645 356.034 197.597C357.041 197.549 358.027 197.903 358.773 198.581C359.531 199.269 377.569 215.788 395.307 244.24C411.711 270.553 430.794 312.352 428.536 362.115C427.025 395.46 417.615 414.613 399.768 420.665C396.663 421.713 393.411 422.262 390.134 422.292Z" fill="#371A45"/>
<path d="M354.617 318.029C353.908 318.028 353.222 317.777 352.679 317.32C352.136 316.864 351.771 316.231 351.648 315.533C351.525 314.834 351.652 314.115 352.006 313.501C352.361 312.886 352.92 312.416 353.586 312.173C355.652 311.424 404.341 294.022 422.036 309.933C422.631 310.468 422.989 311.217 423.031 312.017C423.074 312.816 422.797 313.599 422.261 314.194C421.726 314.79 420.977 315.148 420.177 315.19C419.378 315.232 418.595 314.955 417.999 314.42C405.538 303.214 368.753 313.095 355.645 317.848C355.315 317.968 354.967 318.029 354.617 318.029Z" fill="#371A45"/>
<path d="M382.204 374.088H205.324C204.858 359.741 204.974 345.928 205.514 332.723C206.019 320.496 206.902 308.793 208.061 297.679C209.118 287.516 210.41 277.848 211.856 268.711C212.047 267.504 212.274 266.326 212.522 265.174C216.105 248.966 225.737 237.739 232.353 226.88C233.474 225.036 234.512 223.211 235.414 221.367C236.451 219.292 237.3 217.128 237.952 214.902C238.009 214.715 238.056 214.524 238.094 214.332C238.553 211.964 237.886 209.045 236.802 205.994C234.425 199.29 230.043 191.923 231.279 188.282C233.314 182.284 235.081 177.566 236.395 174.24C237.886 170.438 238.78 168.446 238.78 168.446H348.748C348.748 168.446 349.661 170.406 351.191 174.18C352.78 178.088 355.022 183.935 357.589 191.607C359.177 196.34 360.889 201.77 362.639 207.855C363.921 212.304 365.234 217.106 366.535 222.238C367.153 224.681 367.771 227.201 368.37 229.787C371.242 241.9 373.989 255.617 376.29 270.857C377.594 279.395 378.743 288.39 379.684 297.838C380.816 309.001 381.652 320.772 382.117 333.119C382.612 346.148 382.68 359.838 382.204 374.088Z" fill="white"/>
<path d="M219.964 238.046C220.119 241.029 219.947 243.909 219.802 246.784C219.657 249.66 219.38 252.494 219.124 255.33C218.868 258.167 218.443 260.957 218.059 263.762C217.62 266.558 217.043 269.329 216.548 272.12L215.793 276.303C215.566 277.703 215.377 279.108 215.182 280.513C214.793 283.321 214.433 286.136 214.12 288.962C213.806 291.789 213.47 294.602 213.195 297.431C212.92 300.26 212.63 303.082 212.394 305.916C211.358 317.24 211.056 328.627 210.641 340.007C210.385 345.695 210.139 351.384 209.716 357.074C209.395 362.769 209.067 368.456 205.912 374.115C205.827 374.268 205.685 374.38 205.517 374.428C205.349 374.476 205.169 374.456 205.016 374.371C204.9 374.308 204.806 374.211 204.746 374.093C201.823 368.316 201.75 362.571 201.777 356.835C201.712 351.095 201.864 345.359 202.136 339.623C202.754 328.154 203.858 316.709 204.818 305.25C205.058 302.387 205.329 299.524 205.63 296.661C205.906 293.798 206.219 290.936 206.566 288.076C206.888 285.215 207.248 282.357 207.645 279.502L208.724 270.92C209.045 268.05 209.449 265.189 209.997 262.35C210.544 259.511 211.283 256.709 212.089 253.925C213.762 248.373 215.872 242.912 218.834 237.751C218.899 237.638 218.998 237.548 219.118 237.496C219.237 237.444 219.37 237.432 219.497 237.462C219.624 237.492 219.738 237.562 219.822 237.662C219.906 237.762 219.955 237.886 219.962 238.017L219.964 238.046Z" fill="#371A45"/>
<path d="M381.622 374.103C378.484 368.997 378.18 363.848 377.914 358.704C377.54 353.564 377.342 348.427 377.147 343.3C376.835 333.042 376.58 322.797 375.496 312.62C374.989 307.529 374.366 302.449 373.661 297.38C372.956 292.311 372.244 287.241 371.15 282.225C370.646 279.712 370.093 277.208 369.666 274.681C369.275 272.146 368.963 269.594 368.712 267.026C368.461 264.457 368.348 261.862 368.266 259.248C368.175 256.594 368.255 253.937 368.507 251.294V251.279C368.515 251.2 368.539 251.122 368.578 251.052C368.616 250.982 368.668 250.92 368.73 250.87C368.793 250.819 368.864 250.782 368.941 250.759C369.018 250.737 369.098 250.73 369.178 250.738C369.274 250.749 369.367 250.783 369.448 250.836C369.529 250.889 369.596 250.961 369.644 251.045C372.299 255.75 374.206 260.648 375.751 265.633C377.296 270.607 378.368 275.715 378.952 280.89C379.621 286.048 380.505 291.178 381.198 296.34C381.89 301.501 382.549 306.667 383.064 311.85C384.082 322.213 385.14 332.584 385.656 342.959C385.866 348.149 385.973 353.34 385.857 358.513C385.83 363.691 385.734 368.864 382.788 374.083C382.7 374.239 382.554 374.353 382.381 374.401C382.209 374.449 382.025 374.427 381.869 374.339C381.768 374.282 381.683 374.201 381.622 374.103Z" fill="#371A45"/>
<g opacity="0.35">
<path d="M382.119 341.44C371.256 342.503 357.723 342.889 347.21 340.13V345.952C347.2 349.846 345.648 353.576 342.894 356.329C340.141 359.081 336.409 360.631 332.516 360.639H252.341C248.45 360.627 244.722 359.076 241.972 356.324C239.221 353.572 237.672 349.843 237.661 345.952V341.288C227.182 342.882 214.984 342.194 205.516 341.124C206.013 331.381 206.902 322.053 208.063 313.201C216.753 313.566 227.971 313.722 237.661 312.885V302.422C237.67 298.532 239.219 294.803 241.97 292.051C244.721 289.3 248.45 287.751 252.341 287.743H332.516C334.781 287.748 337.015 288.276 339.042 289.286C341.07 290.297 342.837 291.762 344.205 293.568C346.154 296.11 347.21 299.226 347.208 302.43V312.238C356.965 313.657 369.588 313.657 379.686 313.324C380.816 322.222 381.653 331.606 382.119 341.44Z" fill="#371A45"/>
</g>
<path d="M253.174 326.071C242.149 330.532 225.089 329.6 213.459 328.193C211.802 327.991 210.203 327.46 208.755 326.63C207.307 325.8 206.04 324.689 205.029 323.361C204.018 322.033 203.283 320.517 202.868 318.9C202.453 317.284 202.366 315.601 202.612 313.95C203.062 310.887 204.634 308.1 207.023 306.131C209.412 304.161 212.447 303.15 215.54 303.292C226.417 303.801 242.736 304.04 253.071 301.75" fill="white"/>
<g opacity="0.35">
<path d="M253.176 326.068C242.149 330.537 225.087 329.595 213.458 328.195C211.453 327.948 209.538 327.219 207.876 326.07C206.214 324.921 204.855 323.387 203.916 321.598C202.976 319.81 202.484 317.821 202.481 315.8C202.478 313.78 202.964 311.789 203.899 309.998C204.836 311.793 206.196 313.333 207.861 314.484C209.527 315.635 211.448 316.363 213.458 316.605C225.067 318.013 242.101 318.947 253.128 314.505L253.176 326.068Z" fill="#371A45"/>
</g>
<path d="M231.24 333.158C225.142 333.123 219.051 332.725 213 331.968C208.816 331.455 204.994 329.342 202.335 326.072C199.676 322.802 198.387 318.629 198.739 314.429C199.091 310.229 201.056 306.329 204.221 303.547C207.387 300.764 211.507 299.316 215.718 299.507C231.667 300.252 244.64 299.748 252.247 298.058C253.632 297.749 258.359 297.382 260.906 305.568C263.298 313.264 262.948 326.227 254.601 329.607C248.017 332.26 239.59 333.158 231.24 333.158ZM214.945 307.087C212.725 307.079 210.585 307.922 208.967 309.442C207.348 310.962 206.373 313.044 206.241 315.261C206.109 317.478 206.83 319.661 208.257 321.362C209.684 323.063 211.709 324.154 213.914 324.41C230.402 326.406 243.848 325.742 251.747 322.541C253.437 321.86 254.098 319.041 254.308 317.863C255.163 313.081 253.917 307.577 252.788 305.699C242.219 307.799 226.716 307.63 215.37 307.096C215.22 307.087 215.083 307.087 214.945 307.087Z" fill="#371A45"/>
<path d="M337.494 326.071C348.519 330.532 365.579 329.6 377.212 328.193C378.869 327.991 380.468 327.46 381.915 326.63C383.363 325.8 384.63 324.688 385.64 323.36C386.651 322.033 387.386 320.516 387.801 318.9C388.216 317.283 388.302 315.6 388.056 313.95C387.606 310.887 386.034 308.1 383.646 306.131C381.257 304.161 378.222 303.15 375.129 303.292C364.251 303.801 347.932 304.04 337.598 301.75" fill="white"/>
<g opacity="0.35">
<path d="M377.21 328.195C365.579 329.595 348.519 330.537 337.492 326.069L337.54 314.399C348.567 318.839 365.598 317.907 377.21 316.499C379.211 316.26 381.124 315.538 382.784 314.395C384.444 313.253 385.802 311.724 386.74 309.94C387.409 311.195 387.856 312.556 388.061 313.962C388.304 315.612 388.215 317.294 387.798 318.909C387.381 320.524 386.646 322.039 385.635 323.365C384.623 324.692 383.357 325.802 381.91 326.632C380.463 327.461 378.865 327.993 377.21 328.195Z" fill="#371A45"/>
</g>
<path d="M359.428 333.158C351.078 333.158 342.65 332.263 336.067 329.598C327.72 326.218 327.377 313.255 329.762 305.559C332.309 297.373 337.035 297.74 338.421 298.049C346.028 299.739 358.998 300.253 374.953 299.497C379.162 299.308 383.282 300.757 386.447 303.539C389.612 306.322 391.576 310.222 391.928 314.421C392.279 318.621 390.99 322.793 388.331 326.063C385.673 329.333 381.851 331.446 377.668 331.959C371.617 332.719 365.526 333.12 359.428 333.158ZM338.921 322.537C346.831 325.738 360.266 326.399 376.756 324.405C379.003 324.152 381.064 323.033 382.499 321.285C383.935 319.537 384.633 317.299 384.444 315.045C384.256 312.791 383.196 310.699 381.49 309.214C379.784 307.729 377.566 306.968 375.307 307.092C363.961 307.623 348.449 307.794 337.89 305.694C336.76 307.572 335.514 313.076 336.369 317.858C336.579 319.036 337.253 321.856 338.93 322.537H338.921Z" fill="#371A45"/>
<path d="M341.755 293.725V332.675C341.744 336.158 340.355 339.495 337.893 341.957C335.43 344.42 332.093 345.808 328.61 345.819H256.858C253.377 345.807 250.042 344.417 247.581 341.955C245.12 339.492 243.733 336.156 243.723 332.675V293.725C243.733 290.244 245.12 286.909 247.581 284.447C250.042 281.986 253.377 280.598 256.858 280.587H328.61C332.093 280.594 335.432 281.98 337.895 284.442C340.358 286.904 341.746 290.242 341.755 293.725Z" fill="white"/>
<g opacity="0.35">
<path d="M341.755 293.725V332.675C341.745 336.158 340.357 339.494 337.894 341.957C335.432 344.419 332.095 345.807 328.613 345.817H256.863C253.381 345.807 250.044 344.419 247.582 341.957C245.119 339.494 243.731 336.158 243.721 332.675V318.104C254.497 329.09 275.688 335.987 295.126 336.091C301.371 336.123 306.409 331.183 306.853 324.953C306.853 324.892 306.853 324.83 306.87 324.767C307.123 321.962 308.412 319.351 310.484 317.444C312.557 315.537 315.266 314.471 318.083 314.452C320.899 314.433 323.622 315.464 325.72 317.343C327.818 319.222 329.141 321.816 329.431 324.617C338.846 313.003 336.084 292.815 339.075 285.788C340.818 288.066 341.759 290.856 341.755 293.725Z" fill="#371A45"/>
</g>
<path d="M328.615 349.631H256.861C252.369 349.625 248.064 347.838 244.888 344.662C241.713 341.486 239.926 337.18 239.921 332.689V293.722C239.926 289.231 241.713 284.925 244.888 281.75C248.064 278.574 252.37 276.788 256.861 276.783H328.615C333.106 276.788 337.412 278.574 340.588 281.75C343.763 284.925 345.549 289.231 345.555 293.722V332.689C345.549 337.18 343.763 341.486 340.588 344.662C337.412 347.838 333.106 349.625 328.615 349.631ZM256.861 284.394C254.386 284.397 252.013 285.382 250.263 287.132C248.513 288.882 247.529 291.254 247.526 293.729V332.696C247.529 335.171 248.513 337.544 250.263 339.294C252.013 341.044 254.386 342.028 256.861 342.032H328.615C331.09 342.028 333.463 341.044 335.213 339.294C336.963 337.544 337.947 335.171 337.95 332.696V293.722C337.947 291.247 336.963 288.875 335.213 287.125C333.463 285.375 331.09 284.39 328.615 284.387L256.861 284.394Z" fill="#371A45"/>
<path d="M326.169 321.217C330.594 316.792 330.594 309.617 326.169 305.192C321.744 300.767 314.569 300.767 310.144 305.192C305.719 309.617 305.719 316.792 310.144 321.217C314.569 325.642 321.744 325.642 326.169 321.217Z" fill="#22A7F0"/>
<g opacity="0.7">
<path d="M329.48 313.206C329.482 313.967 329.408 314.725 329.26 315.471C328.732 312.914 327.339 310.617 325.315 308.968C323.29 307.319 320.759 306.418 318.148 306.418C315.537 306.418 313.006 307.319 310.982 308.968C308.958 310.617 307.564 312.914 307.037 315.471C306.89 314.725 306.816 313.967 306.817 313.206C306.817 310.201 308.011 307.319 310.136 305.194C312.261 303.069 315.143 301.875 318.148 301.875C321.154 301.875 324.036 303.069 326.161 305.194C328.286 307.319 329.48 310.201 329.48 313.206Z" fill="white"/>
</g>
<g opacity="0.35">
<path d="M329.479 313.204C329.479 316.209 328.286 319.09 326.161 321.215C324.037 323.339 321.155 324.533 318.15 324.533C315.146 324.533 312.264 323.339 310.14 321.215C308.015 319.09 306.821 316.209 306.821 313.204C306.818 311.799 307.082 310.406 307.599 309.1C308.426 311.226 309.876 313.053 311.758 314.341C313.641 315.629 315.869 316.318 318.15 316.318C320.432 316.318 322.66 315.629 324.542 314.341C326.425 313.053 327.875 311.226 328.702 309.1C329.219 310.406 329.483 311.799 329.479 313.204Z" fill="#371A45"/>
</g>
<path d="M318.158 327.388C315.353 327.388 312.611 326.557 310.279 324.998C307.946 323.44 306.129 321.225 305.055 318.633C303.982 316.042 303.701 313.19 304.248 310.439C304.795 307.688 306.146 305.161 308.13 303.177C310.113 301.194 312.64 299.843 315.391 299.296C318.142 298.749 320.994 299.03 323.585 300.103C326.177 301.176 328.392 302.994 329.95 305.327C331.509 307.659 332.34 310.401 332.34 313.206C332.337 316.966 330.841 320.571 328.182 323.23C325.523 325.889 321.918 327.384 318.158 327.388ZM318.158 304.728C316.481 304.728 314.842 305.225 313.448 306.157C312.054 307.088 310.967 308.412 310.325 309.961C309.684 311.511 309.516 313.215 309.843 314.86C310.17 316.504 310.977 318.015 312.163 319.201C313.349 320.386 314.859 321.194 316.504 321.521C318.149 321.848 319.853 321.68 321.402 321.039C322.952 320.397 324.276 319.31 325.207 317.916C326.139 316.522 326.636 314.883 326.636 313.206C326.634 310.958 325.74 308.803 324.15 307.214C322.561 305.624 320.406 304.73 318.158 304.728Z" fill="#371A45"/>
<path d="M286.049 348.68C285.292 348.68 284.567 348.38 284.031 347.845C283.496 347.309 283.196 346.584 283.196 345.827V325.129C283.191 323.372 282.781 321.639 281.996 320.066C281.212 318.493 280.075 317.123 278.674 316.062L275.642 313.781C273.537 312.187 271.828 310.128 270.649 307.765C269.47 305.402 268.853 302.799 268.847 300.158V280.585C268.868 279.843 269.178 279.139 269.711 278.622C270.243 278.104 270.956 277.815 271.699 277.815C272.441 277.815 273.154 278.104 273.687 278.622C274.22 279.139 274.529 279.843 274.551 280.585V300.158C274.555 301.915 274.966 303.648 275.75 305.22C276.534 306.793 277.671 308.163 279.073 309.223L282.105 311.507C284.21 313.1 285.919 315.159 287.098 317.522C288.276 319.885 288.893 322.488 288.9 325.129V345.827C288.9 346.583 288.6 347.309 288.065 347.844C287.531 348.379 286.805 348.68 286.049 348.68Z" fill="#371A45"/>
<g opacity="0.35">
<path d="M379.691 227.117C377.091 229.531 374.38 231.817 371.558 233.961C365.917 238.286 359.895 242.089 353.564 245.323C333.415 255.564 310.718 259.71 288.25 257.256C265.781 254.801 244.515 245.852 227.052 231.503C226.787 231.3 226.523 231.076 226.27 230.854C216.978 223.066 208.959 213.877 202.501 203.616C211.746 206.531 221.341 208.189 231.028 208.543C228.489 201.383 223.817 193.514 225.128 189.624C227.301 183.215 229.189 178.18 230.591 174.624C232.184 170.563 233.14 168.439 233.14 168.439H350.602C350.602 168.439 351.568 170.532 353.212 174.563C354.902 178.737 357.316 184.982 360.046 193.178C361.736 198.235 363.57 204.041 365.439 210.532C369.166 214.484 374.139 220.058 379.691 227.117Z" fill="#371A45"/>
</g>
<path d="M411.877 175.36C411.247 175.269 410.678 174.932 410.296 174.423C409.913 173.915 409.746 173.275 409.832 172.644L419.488 104.086C419.532 103.773 419.637 103.473 419.797 103.201C419.957 102.928 420.169 102.691 420.421 102.501C420.673 102.311 420.96 102.172 421.266 102.094C421.571 102.015 421.889 101.997 422.202 102.041C428.824 102.974 434.805 106.498 438.829 111.84C442.853 117.183 444.59 123.904 443.658 130.527L440.365 153.904C439.903 157.184 438.8 160.34 437.119 163.193C435.437 166.046 433.21 168.54 430.565 170.533C427.92 172.525 424.908 173.977 421.701 174.805C418.495 175.634 415.156 175.822 411.877 175.36Z" fill="white"/>
<path d="M415.419 176.348C414.203 176.348 412.988 176.263 411.784 176.094C411.374 176.038 410.98 175.9 410.624 175.691C410.268 175.481 409.957 175.203 409.708 174.873C409.46 174.543 409.279 174.167 409.176 173.767C409.073 173.367 409.05 172.95 409.109 172.541L418.765 103.982C418.822 103.573 418.959 103.18 419.168 102.824C419.378 102.468 419.655 102.156 419.985 101.908C420.315 101.659 420.691 101.478 421.091 101.375C421.491 101.273 421.907 101.249 422.316 101.308C429.128 102.272 435.28 105.9 439.418 111.397C443.557 116.893 445.344 123.808 444.387 130.621L441.095 153.999C440.217 160.189 437.138 165.855 432.423 169.959C427.707 174.064 421.671 176.332 415.419 176.348ZM421.872 102.759C421.472 102.758 421.085 102.903 420.783 103.166C420.482 103.428 420.285 103.791 420.23 104.188L410.574 172.746C410.543 172.962 410.556 173.182 410.61 173.394C410.664 173.605 410.76 173.803 410.891 173.978C411.022 174.152 411.186 174.299 411.374 174.41C411.562 174.521 411.77 174.594 411.986 174.624C418.413 175.52 424.932 173.831 430.115 169.926C435.297 166.021 438.719 160.22 439.629 153.796L442.922 130.416C443.82 123.989 442.131 117.469 438.228 112.285C434.324 107.102 428.523 103.678 422.099 102.766C422.02 102.759 421.941 102.756 421.862 102.759H421.872Z" fill="#371A45"/>
<g opacity="0.35">
<path d="M441.906 142.932L440.366 153.897C439.431 160.518 435.906 166.498 430.564 170.521C425.223 174.544 418.502 176.282 411.88 175.353C411.25 175.261 410.681 174.924 410.298 174.415C409.915 173.906 409.749 173.266 409.836 172.634L412.394 154.406C412.523 154.851 412.777 155.25 413.125 155.555C413.474 155.859 413.904 156.057 414.362 156.125L415.989 156.349C421.167 157.079 426.444 156.179 431.088 153.775C435.731 151.371 439.512 147.581 441.906 142.932Z" fill="#371A45"/>
</g>
<path d="M415.419 179.732C414.046 179.732 412.675 179.635 411.315 179.442C409.601 179.2 408.054 178.287 407.012 176.904C405.971 175.521 405.522 173.782 405.763 172.067L415.419 103.509C415.661 101.795 416.574 100.247 417.957 99.2063C419.34 98.1651 421.08 97.7157 422.794 97.9567C430.496 99.0473 437.45 103.151 442.127 109.367C446.805 115.582 448.823 123.401 447.738 131.104L444.445 154.484C443.45 161.478 439.968 167.88 434.638 172.517C429.307 177.154 422.484 179.715 415.419 179.732ZM414.171 171.447C419.456 171.75 424.661 170.057 428.758 166.704C432.854 163.351 435.541 158.582 436.288 153.342L439.579 129.964C440.311 124.721 439.047 119.393 436.037 115.037C433.027 110.681 428.491 107.614 423.327 106.444L414.171 171.447Z" fill="#371A45"/>
<path d="M195.904 70.176C196.216 70.2195 196.517 70.3243 196.789 70.4843C197.061 70.6443 197.299 70.8565 197.489 71.1085C197.679 71.3605 197.817 71.6476 197.896 71.9532C197.975 72.2588 197.993 72.5769 197.948 72.8894L188.292 141.448C188.201 142.078 187.865 142.646 187.357 143.03C186.849 143.413 186.21 143.58 185.579 143.495C178.956 142.562 172.976 139.037 168.952 133.695C164.928 128.353 163.191 121.632 164.123 115.009L167.416 91.6319C167.877 88.3523 168.98 85.1958 170.661 82.3425C172.343 79.4892 174.57 76.9951 177.215 75.0027C179.86 73.0102 182.873 71.5585 186.079 70.7303C189.286 69.9021 192.624 69.7138 195.904 70.176Z" fill="white"/>
<path d="M185.917 144.258C185.77 144.258 185.623 144.249 185.478 144.229C182.102 143.754 178.853 142.619 175.917 140.888C172.98 139.157 170.413 136.865 168.362 134.142C166.312 131.419 164.817 128.319 163.965 125.018C163.112 121.718 162.918 118.282 163.394 114.906L166.684 91.5263C167.159 88.1508 168.295 84.902 170.026 81.9653C171.757 79.0287 174.049 76.4618 176.772 74.4111C179.495 72.3604 182.595 70.8662 185.896 70.0137C189.196 69.1612 192.632 68.9672 196.008 69.4428C196.417 69.4997 196.81 69.6367 197.166 69.8461C197.522 70.0555 197.834 70.3331 198.082 70.663C198.331 70.9929 198.512 71.3686 198.614 71.7686C198.717 72.1686 198.741 72.5849 198.682 72.9938L189.026 141.552C188.922 142.303 188.55 142.99 187.978 143.487C187.407 143.985 186.674 144.259 185.917 144.258ZM192.336 70.6643C186.444 70.6793 180.756 72.818 176.314 76.6881C171.872 80.5581 168.974 85.9001 168.152 91.7339L164.859 115.111C164.411 118.294 164.594 121.534 165.398 124.646C166.202 127.758 167.611 130.682 169.544 133.249C171.478 135.817 173.898 137.978 176.667 139.611C179.436 141.243 182.5 142.313 185.683 142.762C185.899 142.793 186.119 142.781 186.331 142.726C186.542 142.672 186.741 142.576 186.916 142.445C187.09 142.313 187.237 142.149 187.348 141.96C187.459 141.772 187.531 141.564 187.561 141.347L197.217 72.7886C197.248 72.5725 197.237 72.3523 197.182 72.1407C197.128 71.9291 197.033 71.7303 196.902 71.5557C196.77 71.3811 196.606 71.2343 196.418 71.1235C196.229 71.0128 196.021 70.9404 195.805 70.9105C194.656 70.7471 193.496 70.6648 192.336 70.6643Z" fill="#371A45"/>
<g opacity="0.35">
<path d="M190.979 122.43L188.3 141.45C188.208 142.081 187.871 142.65 187.361 143.033C186.851 143.416 186.211 143.582 185.579 143.494C182.3 143.033 179.143 141.931 176.29 140.25C173.437 138.568 170.943 136.342 168.951 133.696C166.959 131.051 165.508 128.039 164.68 124.832C163.853 121.626 163.665 118.288 164.128 115.009L165.516 105.157C166.883 109.807 169.56 113.964 173.228 117.132C176.896 120.3 181.398 122.345 186.197 123.021L188.7 123.371C189.13 123.432 189.567 123.377 189.968 123.211C190.369 123.046 190.718 122.776 190.979 122.43Z" fill="#371A45"/>
</g>
<path d="M185.92 147.643C185.613 147.642 185.308 147.62 185.005 147.577C177.299 146.492 170.341 142.39 165.66 136.175C160.979 129.959 158.959 122.138 160.044 114.433L163.336 91.0553C163.873 87.2398 165.157 83.5675 167.113 80.248C169.07 76.9286 171.661 74.027 174.738 71.7089C177.816 69.3908 181.32 67.7016 185.051 66.7379C188.782 65.7741 192.666 65.5545 196.481 66.0918C197.33 66.2103 198.147 66.4951 198.886 66.93C199.625 67.3648 200.271 67.9412 200.787 68.626C201.303 69.3109 201.678 70.0907 201.892 70.921C202.106 71.7512 202.154 72.6154 202.033 73.4642L192.377 142.023C192.156 143.579 191.382 145.004 190.196 146.036C189.01 147.068 187.492 147.638 185.92 147.643ZM192.343 74.0484C187.266 74.0619 182.364 75.9049 178.536 79.2396C174.708 82.5744 172.21 87.1772 171.501 92.2043L168.222 115.582C167.484 120.827 168.745 126.158 171.756 130.516C174.766 134.874 179.306 137.939 184.474 139.104L193.63 74.0871C193.193 74.0605 192.768 74.0484 192.343 74.0484Z" fill="#371A45"/>
<path d="M303.905 240.752C369.065 240.752 421.888 187.929 421.888 122.768C421.888 57.6081 369.065 4.78516 303.905 4.78516C238.744 4.78516 185.921 57.6081 185.921 122.768C185.921 187.929 238.744 240.752 303.905 240.752Z" fill="white"/>
<path d="M303.929 241.505C295.571 241.501 287.237 240.615 279.065 238.861C215.052 225.159 174.122 161.931 187.814 97.9181C201.507 33.9053 264.74 -7.02944 328.757 6.66777C392.775 20.365 433.703 83.6005 420.008 147.613C408.08 203.283 358.703 241.505 303.929 241.505ZM303.881 5.51387C249.785 5.51387 201.043 43.2476 189.26 98.2271C175.73 161.443 216.15 223.88 279.364 237.413C342.578 250.946 405.017 210.525 418.557 147.309C432.097 84.093 391.667 21.6565 328.453 8.12343C320.38 6.39297 312.147 5.51828 303.891 5.51387H303.881Z" fill="#371A45"/>
<g opacity="0.35">
<path d="M421.586 131.258C421.195 136.708 420.423 142.123 419.276 147.466C405.627 211.179 342.92 251.773 279.207 238.141C215.493 224.509 174.899 161.788 188.531 98.0721C188.922 96.2398 189.357 94.4148 189.832 92.6284C185.588 150.452 224.519 204.007 282.818 216.487C344.7 229.731 405.62 191.821 421.586 131.258Z" fill="#371A45"/>
</g>
<path d="M303.932 244.889C295.33 244.886 286.753 243.974 278.343 242.169C212.505 228.076 170.409 163.049 184.503 97.2111C198.596 31.3733 263.627 -10.725 329.463 3.36813C395.298 17.4612 437.396 82.4904 423.303 148.328C411.05 205.587 360.266 244.889 303.932 244.889ZM303.891 8.89868C251.357 8.89868 204.008 45.5413 192.577 98.942C179.438 160.333 218.69 220.969 280.081 234.111C341.472 247.253 402.11 207.998 415.252 146.607C428.394 85.2158 389.13 24.5754 327.739 11.4334C319.901 9.75207 311.907 8.90246 303.891 8.89868Z" fill="#371A45"/>
<path d="M418.27 150.348C413.78 172.997 402.258 192.562 386.236 207.464C374.223 218.636 330.954 233.777 283.019 224.72C238.577 216.321 202.904 184.661 196.065 169.752C186.943 149.863 183.754 127.379 188.251 104.733C200.138 44.8045 256.551 30.1706 320.065 42.7694C383.578 55.3683 430.144 90.42 418.27 150.348Z" fill="#371A45"/>
<g opacity="0.5">
<path d="M396.6 140.354C400.824 129.625 397.946 118.445 390.172 115.385C382.397 112.324 372.67 118.54 368.446 129.27C364.222 139.999 367.1 151.179 374.874 154.24C382.649 157.3 392.376 151.084 396.6 140.354Z" fill="white"/>
</g>
<g opacity="0.5">
<path d="M363.447 175.806C366.048 171.196 364.949 165.65 360.993 163.418C357.037 161.186 351.721 163.114 349.121 167.724C346.52 172.334 347.619 177.88 351.575 180.112C355.531 182.344 360.846 180.416 363.447 175.806Z" fill="white"/>
</g>
<g opacity="0.35">
<path d="M406.989 90.0044C418.388 106.21 423.04 126.275 418.27 150.355C413.777 173.006 402.252 192.572 386.238 207.476C374.223 218.646 330.956 233.789 283.016 224.731C266.091 221.538 250.446 214.967 237.171 207.225C296.327 217.098 349.083 198.445 363.978 184.586C384.316 165.675 398.938 140.837 404.633 112.098C406.102 104.822 406.891 97.426 406.989 90.0044Z" fill="#111A28"/>
</g>
<path d="M418.798 99.499C418.259 99.4997 417.727 99.3815 417.239 99.1528C416.752 98.9241 416.32 98.5907 415.976 98.1761L415.658 97.8068L415.44 97.324C401.456 66.3182 367.07 43.3077 321.098 34.1899C274.871 25.0165 234.248 33.6829 209.637 57.9439L209.355 58.1853C208.618 58.8211 207.66 59.1383 206.689 59.0672C205.719 58.9962 204.817 58.5426 204.181 57.8063C203.545 57.07 203.228 56.1114 203.299 55.1412C203.37 54.171 203.824 53.2688 204.56 52.6331C230.936 26.6919 273.925 17.3399 322.524 26.9792C370.764 36.5484 407.015 61.017 422.043 94.1085C422.341 94.6678 422.49 95.2949 422.473 95.9286C422.457 96.5624 422.277 97.1811 421.95 97.7243C421.623 98.2674 421.161 98.7165 420.608 99.0276C420.056 99.3387 419.432 99.5011 418.798 99.499Z" fill="#371A45"/>
<g opacity="0.5">
<path d="M207.011 145.506C207.011 145.506 200.174 82.7075 236.703 65.4665C273.232 48.2255 319.063 57.4109 317.409 60.1315C317.409 60.1315 264.225 62.3524 236.413 98.5339C214.965 126.443 207.011 145.506 207.011 145.506Z" fill="white"/>
</g>
<path d="M389.718 508.144C391.329 508.144 392.635 506.839 392.635 505.228C392.635 503.618 391.329 502.312 389.718 502.312C388.108 502.312 386.802 503.618 386.802 505.228C386.802 506.839 388.108 508.144 389.718 508.144Z" fill="#371A45"/>
<g opacity="0.3">
<path d="M325.404 371.542C325.404 371.542 365.996 357.388 399.58 391.518C430.444 422.883 394.368 453.831 394.368 453.831C394.368 453.831 405.473 496.572 376.623 502.054C352.128 506.708 329.991 483.031 332.82 453.739C335.147 429.652 340.437 431.897 338.488 418.685C336.282 403.718 304.398 400.36 304.398 400.36H292.405C292.405 400.36 260.52 403.74 258.314 418.685C256.366 431.897 261.655 429.652 263.982 453.739C266.811 483.031 244.67 506.708 220.179 502.054C191.317 496.572 202.434 453.831 202.434 453.831C202.434 453.831 166.358 422.883 197.222 391.518C230.806 357.376 271.398 371.542 271.398 371.542H325.404Z" fill="#371A45"/>
</g>
<path d="M331.121 359.162C331.121 359.162 380.306 330.491 421 371.848C458.388 409.852 414.694 447.342 414.694 447.342C414.694 447.342 428.165 499.133 393.19 505.776C363.498 511.413 336.687 482.725 340.115 447.231C342.935 418.046 349.342 420.764 346.981 404.759C344.308 386.634 305.674 382.55 305.674 382.55H291.142C291.142 382.55 252.517 386.632 249.835 404.759C247.474 420.764 253.884 418.036 256.701 447.231C260.131 482.717 233.309 511.413 203.628 505.776C168.654 499.133 182.124 447.342 182.124 447.342C182.124 447.342 138.413 409.843 175.809 371.839C216.502 330.481 265.688 359.153 265.688 359.153" fill="white"/>
<g opacity="0.35">
<path d="M412.066 494.251C408.461 499.663 402.564 504.011 393.185 505.788C363.493 511.427 336.678 482.729 340.108 447.24C342.928 418.052 349.332 420.77 346.976 404.77C344.301 386.646 305.662 382.561 305.662 382.561H291.13C291.13 382.561 252.505 386.641 249.828 404.77C247.463 420.77 253.877 418.047 256.696 447.24C260.127 482.727 233.302 511.427 203.619 505.788C194.24 504.011 188.343 499.663 184.739 494.251C184.997 494.302 185.255 494.352 185.514 494.396C220.867 500.499 252.812 470.222 248.732 431.778C245.367 400.174 237.734 403.119 240.554 385.777C243.735 366.153 289.747 361.733 289.747 361.733H307.058C307.058 361.733 353.069 366.153 356.251 385.777C359.061 403.119 351.423 400.174 348.072 431.778C343.992 470.222 375.937 500.499 411.291 494.396C411.556 494.352 411.798 494.302 412.066 494.251Z" fill="#371A45"/>
</g>
<path d="M330.484 358.066C337.047 353.554 344.352 350.501 352.019 348.41C355.87 347.372 359.795 346.632 363.759 346.194C367.762 345.807 371.789 345.726 375.805 345.953C379.838 346.177 383.843 346.87 387.795 347.773C391.747 348.676 395.573 350.1 399.325 351.635C406.738 354.957 413.531 359.527 419.528 364.857C425.473 370.144 430.849 376.485 434.707 383.817C436.614 387.537 438.049 391.481 438.98 395.556C439.833 399.669 440.107 403.881 439.796 408.07C439.185 416.433 436.315 424.365 432.298 431.371C430.288 434.866 428.011 438.201 425.488 441.345C424.225 442.905 422.929 444.438 421.553 445.903C420.867 446.642 420.17 447.366 419.45 448.076C418.731 448.785 418.036 449.461 417.157 450.231L418.364 446.388C419.062 449.23 419.528 451.851 419.945 454.596C420.363 457.341 420.645 460.054 420.826 462.804C421.241 468.376 421.049 473.976 420.252 479.506C419.814 482.343 419.146 485.14 418.255 487.869C417.302 490.667 416.045 493.352 414.506 495.876C412.86 498.432 410.861 500.744 408.568 502.741C406.217 504.682 403.598 506.272 400.792 507.463C398.04 508.559 395.17 509.332 392.239 509.766C390.813 510.027 389.357 510.095 387.911 510.227C386.463 510.244 385.014 510.329 383.566 510.21C380.66 510.082 377.776 509.645 374.962 508.907C372.151 508.2 369.418 507.21 366.808 505.95C356.333 500.972 348.089 492.252 342.909 482.208C337.718 472.122 335.466 460.66 336.149 449.447C336.306 446.594 336.661 443.979 336.965 441.266L337.545 437.217L338.269 433.169C338.826 430.473 339.428 427.764 340.227 425.106C340.982 422.451 341.933 419.836 342.641 417.5C343.344 415.327 343.695 413.055 343.679 410.772C343.689 410.184 343.668 409.597 343.616 409.012C343.577 408.418 343.551 407.827 343.459 407.209L343.235 405.372C343.119 404.889 343.056 404.435 342.918 403.974C341.837 400.333 338.332 397.116 334.148 394.772C329.965 392.427 325.158 390.668 320.263 389.299C315.348 387.95 310.342 386.959 305.284 386.332L305.682 386.351H291.149L291.55 386.332C286.491 386.958 281.484 387.95 276.569 389.299C271.673 390.66 266.881 392.391 262.683 394.772C258.485 397.152 254.997 400.324 253.915 403.974C253.778 404.435 253.715 404.884 253.597 405.372L253.372 407.209C253.281 407.827 253.254 408.416 253.218 409.012C253.164 409.597 253.142 410.184 253.153 410.772C253.136 413.056 253.488 415.327 254.193 417.5C254.903 419.836 255.854 422.453 256.607 425.106C257.404 427.762 258.005 430.473 258.565 433.169L259.289 437.217L259.866 441.266C260.17 443.979 260.525 446.594 260.682 449.447C261.37 460.66 259.12 472.122 253.923 482.208C248.74 492.252 240.493 500.972 230.024 505.95C227.414 507.209 224.682 508.2 221.872 508.907C219.057 509.645 216.172 510.082 213.266 510.21C211.817 510.329 210.369 510.244 208.92 510.227C207.472 510.095 206.023 510.027 204.592 509.766C201.662 509.332 198.791 508.559 196.039 507.463C193.234 506.272 190.615 504.681 188.263 502.741C185.971 500.744 183.972 498.432 182.325 495.876C180.787 493.351 179.53 490.666 178.576 487.869C177.688 485.139 177.02 482.343 176.58 479.506C175.783 473.976 175.59 468.376 176.005 462.804C176.187 460.05 176.481 457.314 176.886 454.596C177.304 451.849 177.77 449.227 178.467 446.388L179.674 450.231C178.796 449.461 178.117 448.805 177.381 448.076C176.645 447.347 175.964 446.627 175.278 445.903C173.902 444.438 172.606 442.905 171.344 441.345C168.821 438.2 166.544 434.866 164.534 431.371C160.524 424.37 157.634 416.435 157.05 408.07C156.751 403.883 157.039 399.675 157.907 395.568C158.841 391.5 160.278 387.565 162.187 383.853C166.091 376.562 171.488 370.279 177.458 365.05C183.435 359.739 190.158 355.116 197.555 351.792C204.908 348.412 212.889 346.24 220.971 345.656C225.001 345.384 229.046 345.435 233.068 345.808C237.055 346.22 241.004 346.937 244.882 347.951C248.718 349.001 252.463 350.36 256.078 352.017C259.68 353.694 263.115 355.592 266.321 358.052C266.565 358.236 266.734 358.502 266.799 358.801C266.863 359.1 266.818 359.412 266.672 359.68C266.526 359.949 266.289 360.156 266.003 360.264C265.717 360.373 265.401 360.375 265.114 360.27L265.034 360.244C257.993 357.794 250.755 355.95 243.4 354.73C239.779 354.126 236.119 353.796 232.488 353.559C230.668 353.537 228.851 353.429 227.042 353.509C226.137 353.535 225.229 353.533 224.327 353.578L221.623 353.774C214.423 354.358 207.365 356.1 200.72 358.93C197.392 360.364 194.196 362.085 191.168 364.075C188.105 366.054 185.208 368.278 182.504 370.723C176.951 375.575 172.261 381.147 168.915 387.38C167.309 390.485 166.093 393.777 165.294 397.181C164.579 400.58 164.342 404.062 164.589 407.527C165.072 414.482 167.51 421.338 171.092 427.595C172.906 430.744 174.958 433.748 177.231 436.583C178.378 438 179.558 439.395 180.802 440.72C181.422 441.386 182.052 442.041 182.692 442.676C183.332 443.31 184.017 443.967 184.58 444.46L186.347 446.009L185.784 448.303C185.219 450.613 184.739 453.218 184.367 455.714C183.995 458.21 183.718 460.783 183.551 463.315C183.174 468.33 183.342 473.371 184.051 478.35C184.426 480.757 184.991 483.13 185.741 485.447C186.5 487.672 187.497 489.808 188.712 491.82C189.946 493.725 191.435 495.45 193.14 496.948C194.891 498.38 196.835 499.558 198.914 500.448C201.096 501.306 203.369 501.912 205.688 502.254C206.871 502.478 208.073 502.519 209.266 502.638C210.473 502.638 211.663 502.727 212.858 502.621C215.254 502.518 217.633 502.158 219.952 501.547C222.289 500.961 224.56 500.137 226.729 499.089C235.479 494.939 242.623 487.487 247.142 478.724C251.661 469.961 253.66 459.847 253.058 449.896C252.93 447.451 252.576 444.805 252.291 442.248L251.745 438.422L251.079 434.637C250.557 432.141 250.012 429.669 249.283 427.243C248.554 424.817 247.719 422.415 246.869 419.689C245.955 416.8 245.497 413.787 245.51 410.757C245.488 409.997 245.541 409.273 245.589 408.544C245.638 407.815 245.674 407.081 245.775 406.388L246.036 404.276C246.198 403.469 246.347 402.603 246.591 401.796C247.583 398.521 249.515 395.72 251.702 393.523C253.889 391.327 256.363 389.608 258.876 388.169C263.919 385.318 269.199 383.455 274.505 381.972C279.822 380.509 285.24 379.439 290.715 378.771L290.886 378.75H305.873L306.046 378.771C311.52 379.439 316.937 380.509 322.254 381.972C327.565 383.455 332.84 385.318 337.885 388.169C340.396 389.618 342.86 391.307 345.057 393.523C347.254 395.74 349.175 398.521 350.168 401.796C350.409 402.603 350.564 403.469 350.723 404.276L350.984 406.388C351.085 407.081 351.124 407.815 351.169 408.544C351.215 409.273 351.271 409.992 351.249 410.757C351.262 413.787 350.804 416.8 349.89 419.689C349.05 422.427 348.183 424.795 347.476 427.243C346.769 429.69 346.201 432.141 345.682 434.637L345.014 438.422L344.468 442.248C344.181 444.805 343.828 447.451 343.7 449.896C343.09 459.847 345.096 469.932 349.62 478.724C354.144 487.516 361.279 494.939 370.03 499.089C372.199 500.137 374.47 500.961 376.806 501.547C379.126 502.158 381.505 502.518 383.901 502.621C385.096 502.727 386.296 502.642 387.493 502.638C388.686 502.519 389.888 502.478 391.071 502.254C393.39 501.912 395.663 501.306 397.845 500.448C399.925 499.557 401.869 498.379 403.621 496.948C405.324 495.45 406.813 493.724 408.046 491.82C409.262 489.808 410.258 487.672 411.018 485.447C411.769 483.13 412.334 480.757 412.708 478.35C413.418 473.371 413.586 468.33 413.21 463.315C413.041 460.778 412.768 458.246 412.392 455.714C412.015 453.181 411.542 450.613 410.975 448.303L410.412 446.009L412.179 444.46C412.742 443.977 413.447 443.296 414.067 442.676C414.687 442.055 415.339 441.386 415.957 440.72C417.2 439.395 418.371 438 419.528 436.583C421.801 433.748 423.853 430.744 425.666 427.595C429.244 421.338 431.702 414.485 432.158 407.525C432.39 404.063 432.139 400.585 431.412 397.193C430.602 393.8 429.376 390.52 427.762 387.428C424.382 381.238 419.639 375.747 414.096 370.918C408.676 366.102 402.576 362.111 395.991 359.075C389.393 356.114 382.361 354.239 375.165 353.523C367.949 352.772 360.577 353.122 353.275 354.305C345.902 355.509 338.68 357.501 331.734 360.248L331.647 360.282C331.357 360.398 331.034 360.403 330.741 360.296C330.447 360.189 330.204 359.977 330.056 359.702C329.909 359.426 329.868 359.106 329.942 358.803C330.016 358.499 330.2 358.233 330.457 358.057L330.484 358.066Z" fill="#371A45"/>
<path d="M416.143 450.886L413.526 451.719C412.561 451.992 411.595 452.243 410.61 452.429C408.679 452.815 406.72 453.039 404.751 453.097C400.944 453.189 397.14 452.817 393.422 451.989C389.829 451.143 386.312 449.998 382.909 448.566C381.219 447.898 379.597 447.041 377.953 446.292C376.345 445.455 374.767 444.569 373.183 443.716C374.899 444.281 376.597 444.873 378.303 445.406C380.044 445.85 381.743 446.401 383.491 446.751C386.924 447.53 390.417 448.021 393.932 448.219C397.336 448.368 400.747 448.103 404.088 447.429C405.691 447.095 407.263 446.626 408.788 446.027C409.538 445.739 410.265 445.404 410.984 445.061L413.338 443.82C413.784 443.561 414.277 443.394 414.789 443.331C415.301 443.267 415.82 443.307 416.316 443.449C416.811 443.592 417.273 443.833 417.673 444.158C418.073 444.483 418.404 444.886 418.644 445.342C418.885 445.798 419.03 446.298 419.072 446.812C419.115 447.326 419.052 447.843 418.89 448.332C418.727 448.822 418.467 449.273 418.125 449.659C417.783 450.045 417.367 450.358 416.901 450.58C416.708 450.681 416.507 450.767 416.3 450.835L416.143 450.886Z" fill="#371A45"/>
<path d="M183.86 443.815L186.216 445.055C186.94 445.405 187.664 445.741 188.41 446.021C189.935 446.621 191.507 447.09 193.11 447.424C196.451 448.097 199.862 448.362 203.266 448.213C206.782 448.016 210.275 447.525 213.709 446.745C215.455 446.395 217.154 445.845 218.895 445.401C220.601 444.865 222.298 444.273 224.015 443.711C222.431 444.563 220.855 445.449 219.245 446.287C217.601 447.035 215.986 447.892 214.289 448.561C210.886 449.993 207.369 451.138 203.776 451.984C200.058 452.811 196.254 453.183 192.447 453.092C190.479 453.033 188.52 452.809 186.59 452.423C185.61 452.237 184.637 451.986 183.672 451.713L181.057 450.88L180.92 450.837C180.439 450.687 179.992 450.443 179.606 450.12C179.219 449.796 178.901 449.4 178.668 448.953C178.435 448.506 178.293 448.018 178.25 447.516C178.207 447.014 178.263 446.508 178.416 446.028C178.568 445.548 178.814 445.103 179.14 444.718C179.465 444.334 179.863 444.017 180.311 443.787C180.759 443.556 181.248 443.417 181.75 443.376C182.252 443.335 182.758 443.394 183.237 443.549C183.451 443.621 183.66 443.709 183.86 443.815Z" fill="#371A45"/>
<path d="M434.424 419.657C434 419.656 433.58 419.56 433.197 419.376C432.814 419.193 432.476 418.926 432.209 418.596C431.942 418.265 431.752 417.88 431.652 417.467C431.553 417.054 431.546 416.623 431.634 416.208C432.947 410.074 431.991 405.723 428.708 402.909C415.098 391.23 366.185 406.148 348.49 412.883C347.783 413.152 346.998 413.13 346.308 412.82C345.618 412.51 345.08 411.939 344.811 411.232C344.542 410.525 344.565 409.741 344.875 409.051C345.184 408.361 345.755 407.822 346.462 407.553C353.299 404.951 413.797 382.597 432.421 398.578C437.367 402.822 438.977 409.154 437.21 417.407C437.073 418.044 436.722 418.615 436.215 419.024C435.708 419.434 435.076 419.657 434.424 419.657Z" fill="#371A45"/>
<path d="M163.525 419.657C162.873 419.656 162.242 419.432 161.735 419.023C161.229 418.614 160.877 418.044 160.739 417.407C158.972 409.159 160.584 402.827 165.528 398.578C184.155 382.597 244.653 404.951 251.489 407.553C251.839 407.687 252.16 407.888 252.432 408.145C252.704 408.402 252.923 408.71 253.077 409.052C253.23 409.393 253.314 409.762 253.325 410.136C253.336 410.511 253.273 410.884 253.139 411.234C253.006 411.583 252.805 411.904 252.548 412.176C252.291 412.448 251.983 412.667 251.641 412.821C251.299 412.974 250.931 413.058 250.556 413.069C250.182 413.08 249.809 413.017 249.459 412.883C231.76 406.151 182.832 391.234 169.243 402.909C165.96 405.726 165.004 410.076 166.318 416.208C166.405 416.624 166.399 417.054 166.299 417.467C166.2 417.88 166.009 418.266 165.741 418.597C165.474 418.927 165.136 419.194 164.753 419.377C164.369 419.561 163.95 419.656 163.525 419.657Z" fill="#371A45"/>
</svg>
