<svg width="200" height="200" viewBox="0 0 91 91" fill="none" xmlns="http://www.w3.org/2000/svg">
<circle cx="45.5" cy="45.8273" r="45" fill="#3C3C3C"/>
<path d="M25 38.0774H23.5V35.0774C23.5011 34.0832 23.8966 33.13 24.5996 32.427C25.3026 31.724 26.2558 31.3285 27.25 31.3274H52.75V29.8274H51.25C51.1017 29.8274 50.9567 29.7834 50.8333 29.701C50.71 29.6186 50.6138 29.5015 50.5571 29.3644C50.5003 29.2274 50.4854 29.0766 50.5144 28.9311C50.5433 28.7856 50.6148 28.652 50.7197 28.5471L55.2197 24.0471C55.2893 23.9774 55.372 23.9222 55.463 23.8845C55.554 23.8468 55.6515 23.8274 55.75 23.8274C55.8485 23.8274 55.946 23.8468 56.037 23.8845C56.128 23.9222 56.2107 23.9774 56.2803 24.0471L60.7803 28.5471C60.8852 28.652 60.9567 28.7856 60.9856 28.9311C61.0146 29.0766 60.9997 29.2274 60.9429 29.3644C60.8862 29.5015 60.79 29.6186 60.6667 29.701C60.5433 29.7834 60.3983 29.8274 60.25 29.8274H58.75V31.3274H61.75C62.7442 31.3285 63.6974 31.724 64.4004 32.427C65.1034 33.13 65.4989 34.0832 65.5 35.0774V50.0774H64V35.0774C63.9993 34.4809 63.762 33.909 63.3402 33.4872C62.9184 33.0654 62.3465 32.8281 61.75 32.8274H58.75V46.3274H57.25V29.0774C57.25 28.8785 57.329 28.6877 57.4697 28.5471C57.6103 28.4064 57.8011 28.3274 58 28.3274H58.4394L55.75 25.638L53.0606 28.3274H53.5C53.6989 28.3274 53.8897 28.4064 54.0303 28.5471C54.171 28.6877 54.25 28.8785 54.25 29.0774V47.0774H52.75V32.8274H27.25C26.6535 32.8281 26.0816 33.0654 25.6598 33.4872C25.238 33.909 25.0007 34.4809 25 35.0774V38.0774ZM27.25 61.3274H39.7419L37.9419 67.3274H36.25V68.8274H52.75V67.3274H51.0581L50.0934 64.1118L48.6566 64.543L49.492 67.3274H39.5076L41.3076 61.3274H46.75V59.8274H27.25C26.6535 59.8267 26.0816 59.5895 25.6598 59.1676C25.238 58.7458 25.0007 58.1739 25 57.5774V56.8274H46V55.3274H25V39.5774H23.5V57.5774C23.5011 58.5716 23.8966 59.5248 24.5996 60.2278C25.3026 60.9309 26.2558 61.3263 27.25 61.3274V61.3274ZM49.75 48.5774V36.5774H46.75V53.8274H27.25V52.3274H30.25V46.3274C30.25 46.1285 30.329 45.9377 30.4697 45.7971C30.6103 45.6564 30.8011 45.5774 31 45.5774H35.5C35.6989 45.5774 35.8897 45.6564 36.0303 45.7971C36.171 45.9377 36.25 46.1285 36.25 46.3274V52.3274H37.75V41.0774C37.75 40.8785 37.829 40.6877 37.9697 40.5471C38.1103 40.4064 38.3011 40.3274 38.5 40.3274H43C43.1989 40.3274 43.3897 40.4064 43.5303 40.5471C43.671 40.6877 43.75 40.8785 43.75 41.0774V52.3274H45.25V35.8274C45.25 35.6285 45.329 35.4377 45.4697 35.2971C45.6103 35.1564 45.8011 35.0774 46 35.0774H50.5C50.6989 35.0774 50.8897 35.1564 51.0303 35.2971C51.171 35.4377 51.25 35.6285 51.25 35.8274V48.5774H49.75ZM34.75 47.0774H31.75V52.3274H34.75V47.0774ZM42.25 41.8274H39.25V52.3274H42.25V41.8274ZM27.25 34.3274V35.8274H28.75V34.3274H27.25ZM31.75 34.3274H30.25V35.8274H31.75V34.3274ZM33.25 34.3274V35.8274H34.75V34.3274H33.25ZM67.8407 64.9868C68.2612 65.4096 68.4981 65.9811 68.5 66.5774C68.5003 66.873 68.4423 67.1657 68.3293 67.4388C68.2163 67.7119 68.0506 67.96 67.8416 68.169C67.6326 68.378 67.3845 68.5437 67.1114 68.6567C66.8383 68.7697 66.5456 68.8277 66.25 68.8274C65.6543 68.8222 65.084 68.5858 64.6593 68.1681L61.0694 64.5782C59.181 65.6921 56.9512 66.0791 54.798 65.6665C52.6447 65.2539 50.7159 64.0701 49.3731 62.337C48.0303 60.6039 47.3658 58.4405 47.5041 56.2524C47.6423 54.0644 48.5739 52.0019 50.1242 50.4516C51.6745 48.9013 53.737 47.9697 55.925 47.8315C58.1131 47.6932 60.2764 48.3578 62.0095 49.7005C63.7426 51.0433 64.9264 52.9722 65.3391 55.1254C65.7517 57.2786 65.3647 59.5085 64.2508 61.3968L67.8407 64.9868ZM64 56.8274C64 55.3441 63.5601 53.894 62.736 52.6606C61.9119 51.4273 60.7406 50.466 59.3701 49.8983C57.9997 49.3307 56.4917 49.1821 55.0368 49.4715C53.582 49.7609 52.2456 50.4752 51.1967 51.5241C50.1478 52.573 49.4335 53.9094 49.1441 55.3642C48.8547 56.8191 49.0032 58.3271 49.5709 59.6976C50.1386 61.068 51.0999 62.2393 52.3332 63.0634C53.5666 63.8876 55.0166 64.3274 56.5 64.3274C58.4884 64.3252 60.3948 63.5343 61.8008 62.1282C63.2068 60.7222 63.9977 58.8159 64 56.8274V56.8274ZM66.7799 66.0475L63.3686 62.6361C63.0451 63.018 62.6906 63.3725 62.3087 63.696L65.7201 67.1073C65.789 67.1799 65.8717 67.2379 65.9634 67.278C66.055 67.318 66.1538 67.3393 66.2538 67.3406C66.3539 67.3419 66.4532 67.3232 66.5458 67.2855C66.6385 67.2478 66.7227 67.192 66.7934 67.1212C66.8642 67.0505 66.92 66.9663 66.9577 66.8736C66.9954 66.781 67.0141 66.6817 67.0128 66.5816C67.0115 66.4816 66.9902 66.3828 66.9502 66.2912C66.9101 66.1995 66.8521 66.1168 66.7795 66.0479L66.7799 66.0475ZM62.5 56.8274C62.5 58.0141 62.1481 59.1741 61.4888 60.1608C60.8295 61.1475 59.8925 61.9166 58.7961 62.3707C57.6997 62.8248 56.4933 62.9436 55.3295 62.7121C54.1656 62.4806 53.0965 61.9092 52.2574 61.0701C51.4182 60.2309 50.8468 59.1619 50.6153 57.998C50.3838 56.8341 50.5026 55.6277 50.9567 54.5313C51.4108 53.435 52.1799 52.4979 53.1666 51.8386C54.1533 51.1793 55.3133 50.8274 56.5 50.8274C58.0908 50.8292 59.6158 51.4619 60.7407 52.5868C61.8655 53.7116 62.4982 55.2367 62.5 56.8274V56.8274ZM61 56.8274C61 55.9374 60.7361 55.0674 60.2416 54.3274C59.7471 53.5873 59.0443 53.0106 58.2221 52.67C57.3998 52.3294 56.495 52.2403 55.6221 52.4139C54.7492 52.5875 53.9474 53.0161 53.318 53.6454C52.6887 54.2748 52.2601 55.0766 52.0865 55.9495C51.9128 56.8224 52.0019 57.7272 52.3425 58.5495C52.6831 59.3718 53.2599 60.0746 53.9999 60.569C54.74 61.0635 55.61 61.3274 56.5 61.3274C57.6931 61.3261 58.8369 60.8516 59.6805 60.008C60.5242 59.1643 60.9987 58.0205 61 56.8274ZM53.5 56.8274H55C55.0005 56.4297 55.1587 56.0485 55.4399 55.7673C55.7211 55.4861 56.1023 55.3279 56.5 55.3274V53.8274C55.7046 53.8283 54.9421 54.1447 54.3797 54.7071C53.8173 55.2695 53.5009 56.032 53.5 56.8274ZM63.25 28.3274H64.75C64.7487 27.1343 64.2742 25.9905 63.4305 25.1469C62.5869 24.3033 61.4431 23.8287 60.25 23.8274V25.3274C61.0454 25.3283 61.8079 25.6447 62.3703 26.2071C62.9327 26.7695 63.2491 27.532 63.25 28.3274Z" fill="white"/>
</svg>
