<svg width="200" height="200" viewBox="0 0 91 91" fill="none" xmlns="http://www.w3.org/2000/svg">
<circle cx="45.5" cy="45.8273" r="45" fill="#3C3C3C"/>
<path d="M65.0408 38.3435H64.1452V27.4564C64.1452 25.4554 62.5172 23.8274 60.5161 23.8274H57.6129C55.6119 23.8274 53.9839 25.4554 53.9839 27.4564V29.6338H43.8226V26.0048C43.8226 24.8043 42.8456 23.8274 41.6452 23.8274H30.0323C28.8318 23.8274 27.8548 24.8043 27.8548 26.0048V34.7145C27.8548 35.915 28.8318 36.8919 30.0323 36.8919H35.1129V38.3435H26.9592C25.0518 38.3435 23.5 39.8953 23.5 41.8027C23.5 41.9464 23.5094 42.0901 23.5269 42.2317L26.11 62.8947C26.3256 64.6221 27.8011 65.9242 29.5416 65.9242H33.4414L37.3331 68.5189C37.6373 68.7207 37.99 68.8274 38.3536 68.8274C39.3676 68.8274 40.1935 68.0014 40.1935 66.9867V65.9242H62.4584C64.1989 65.9242 65.6752 64.6221 65.8907 62.8947L68.4739 42.2324C68.4906 42.0894 68.5 41.9464 68.5 41.8027C68.5 39.8953 66.9482 38.3435 65.0408 38.3435V38.3435ZM55.4355 27.4564C55.4355 26.2559 56.4124 25.279 57.6129 25.279H60.5161C61.7166 25.279 62.6935 26.2559 62.6935 27.4564V31.0855H55.4355V27.4564ZM55.4355 32.5371H62.6935V33.9887H55.4355V32.5371ZM59.7903 45.6016V35.4403H62.6935V45.6016H59.7903ZM62.245 47.0532L59.4659 52.6114C59.3127 52.9184 58.8163 52.9177 58.6639 52.6114L55.884 47.0532H62.245ZM55.4355 35.4403H58.3387V45.6016H55.4355V35.4403ZM43.8226 34.7145V31.0855H53.9839V38.3435H36.5645V36.8919H41.6452C42.8456 36.8919 43.8226 35.915 43.8226 34.7145ZM30.0323 35.4403C29.6316 35.4403 29.3065 35.1144 29.3065 34.7145V26.0048C29.3065 25.6049 29.6316 25.279 30.0323 25.279H41.6452C42.0458 25.279 42.371 25.6049 42.371 26.0048V34.7145C42.371 35.1144 42.0458 35.4403 41.6452 35.4403H30.0323ZM67.0331 42.0509L64.45 62.7139C64.3244 63.7163 63.468 64.4726 62.4584 64.4726H38.7419V66.9867C38.7419 67.2778 38.3783 67.4701 38.1373 67.3105L33.8812 64.4726H29.5416C28.5313 64.4726 27.6756 63.7163 27.55 62.7147L24.9669 42.0509C24.9567 41.9682 24.9516 41.8855 24.9516 41.8027C24.9516 40.6959 25.8516 39.7951 26.9592 39.7951H53.9839V46.4987L57.1644 52.8597H53.2581V54.3113H59.0645C59.7889 54.3113 60.4399 53.9084 60.7644 53.261L64.1452 46.4987V39.7951H65.0408C66.1484 39.7951 67.0484 40.6959 67.0484 41.8027C67.0484 41.8855 67.0433 41.9682 67.0331 42.0509V42.0509Z" fill="white"/>
<path d="M48.1776 47.8521V43.424C48.1776 42.2235 47.2006 41.2466 46.0001 41.2466C44.9325 41.2466 44.0463 42.0203 43.8619 43.035C41.2185 45.1551 37.9183 46.3272 34.5244 46.3272H31.484C29.483 46.3272 27.855 47.9552 27.855 49.9563V52.8595C27.855 54.8605 29.483 56.4885 31.484 56.4885H32.3535L33.8059 63.0208H38.0163V56.9153C40.1407 57.4277 42.141 58.3996 43.8619 59.78C44.0463 60.7955 44.9325 61.5692 46.0001 61.5692C47.2006 61.5692 48.1776 60.5922 48.1776 59.3917V54.9636C49.8317 54.6261 51.0808 53.1607 51.0808 51.4079C51.0808 49.655 49.8317 48.1896 48.1776 47.8521ZM33.6614 55.0369H31.484C30.539 55.0369 29.7406 54.428 29.4401 53.5853H32.2098V52.1337H29.3066V50.6821H32.2098V49.2305H29.4401C29.7406 48.3878 30.539 47.7788 31.484 47.7788H33.6614V55.0369ZM36.5647 61.5692H34.9693L33.8407 56.4885H34.5251C35.211 56.4885 35.8911 56.5495 36.5654 56.6431V61.5692H36.5647ZM43.8227 57.9343C41.2606 56.1699 38.2318 55.1755 35.113 55.063V47.7527C38.2318 47.6395 41.2606 46.6459 43.8227 44.8814V57.9343ZM46.7259 59.3917C46.7259 59.7917 46.4008 60.1175 46.0001 60.1175C45.5995 60.1175 45.2743 59.7917 45.2743 59.3917V43.424C45.2743 43.0241 45.5995 42.6982 46.0001 42.6982C46.4008 42.6982 46.7259 43.0241 46.7259 43.424V59.3917ZM48.1776 53.4517V49.3647C49.0202 49.6652 49.6292 50.4636 49.6292 51.4086C49.6292 52.3536 49.0202 53.1513 48.1776 53.4517Z" fill="white"/>
<path d="M38.4173 28.6597L34.9596 26.9308C34.6975 26.8001 34.4029 26.7305 34.1096 26.7305C33.0623 26.7305 32.2095 27.5826 32.2095 28.6306V32.0884C32.2095 33.1364 33.0623 33.9885 34.1096 33.9885C34.4029 33.9885 34.6975 33.9189 34.9596 33.7882L38.4173 32.0593C39.0647 31.7356 39.4675 31.0839 39.4675 30.3595C39.4675 29.6351 39.0647 28.9834 38.4173 28.6597V28.6597ZM37.7677 30.7609L34.31 32.4897C34.0298 32.632 33.6611 32.4055 33.6604 32.0884V28.6306C33.6611 28.3831 33.8621 28.1821 34.1096 28.1821C34.1793 28.1821 34.2483 28.198 34.31 28.2293L37.7677 29.9581C37.9208 30.0351 38.0159 30.1882 38.0159 30.3595C38.0159 30.5308 37.9208 30.6839 37.7677 30.7609Z" fill="white"/>
<path d="M53.2578 55.7627H63.4191V57.2143H53.2578V55.7627Z" fill="white"/>
<path d="M53.2578 58.666H63.4191V60.1176H53.2578V58.666Z" fill="white"/>
<path d="M59.0645 61.5692H60.5161V63.0208H59.0645V61.5692Z" fill="white"/>
<path d="M61.9678 61.5692H63.4194V63.0208H61.9678V61.5692Z" fill="white"/>
<path d="M53.2578 61.5692H54.7094V63.0208H53.2578V61.5692Z" fill="white"/>
<path d="M56.1611 61.5692H57.6127V63.0208H56.1611V61.5692Z" fill="white"/>
</svg>
