<svg width="200" height="200" viewBox="0 0 91 91" fill="none" xmlns="http://www.w3.org/2000/svg">
<circle cx="45.5" cy="45.8273" r="45" fill="#3C3C3C"/>
<path d="M66.9706 58.9768L59.5684 51.5749C61.1088 49.5474 60.9555 46.6355 59.1059 44.7856L57.0722 42.7519C57.2477 41.7764 57.3395 40.7723 57.3395 39.747C57.3395 30.4175 49.7494 22.8273 40.4198 22.8273C31.0901 22.8273 23.5 30.4175 23.5 39.747C23.5 49.0767 31.0902 56.6669 40.4198 56.6669C41.445 56.6669 42.4493 56.5752 43.4247 56.3995L45.4584 58.4333C46.4676 59.4425 47.7933 59.9472 49.1189 59.9472C50.2229 59.9472 51.3263 59.5959 52.2475 58.8959L59.6496 66.2979C60.669 67.3173 62.0064 67.8272 63.3413 67.8272C64.6656 67.8272 65.9874 67.325 66.9926 66.3199C69.0109 64.3015 69.001 61.0075 66.9706 58.9768V58.9768ZM24.9062 39.747C24.9062 31.1929 31.8656 24.2334 40.4198 24.2334C48.974 24.2334 55.9334 31.1929 55.9334 39.747C55.9334 48.3013 48.974 55.2608 40.4198 55.2608C31.8656 55.2608 24.9062 48.3014 24.9062 39.747ZM46.4527 57.439L45.0396 56.0258C50.6619 54.428 55.1006 49.9893 56.6985 44.367L58.1115 45.78C59.5814 47.2498 59.5816 49.6415 58.1122 51.1116C58.112 51.1118 58.1118 51.112 58.1115 51.1122C58.1111 51.1126 58.1109 51.1129 58.1105 51.1133L51.7849 57.4389C50.3151 58.9092 47.9229 58.9092 46.4527 57.439V57.439ZM65.9982 65.3254C64.5282 66.7957 62.1261 66.7858 60.644 65.3035L53.2766 57.9361L58.6088 52.6039L65.9763 59.9711C67.4584 61.4534 67.4683 63.8554 65.9982 65.3254Z" fill="white"/>
<path d="M52.1143 40.0043C52.114 39.6765 51.8873 39.3923 51.5676 39.3195L49.9589 38.9523C49.8785 38.2241 49.7162 37.5108 49.4738 36.8215L50.7629 35.7936C51.0192 35.5891 51.1002 35.2348 50.9583 34.9394C50.572 34.1357 50.0982 33.3797 49.5499 32.6923C49.0017 32.0048 48.3701 31.3745 47.6725 30.8192C47.416 30.6151 47.0525 30.6152 46.7961 30.8195L45.505 31.8491C44.8862 31.4585 44.2277 31.1409 43.5378 30.9005V29.2504C43.5378 28.9226 43.3113 28.6382 42.9917 28.565C41.2538 28.1668 39.4592 28.1668 37.7218 28.565C37.4022 28.6383 37.1757 28.9226 37.1757 29.2504V30.9005C36.4859 31.1408 35.8273 31.4585 35.2084 31.8492L33.9173 30.8195C33.6611 30.6151 33.2976 30.6149 33.0409 30.8192C32.3434 31.3745 31.7118 32.0047 31.1635 32.6923C30.6153 33.3797 30.1414 34.1357 29.7551 34.9394C29.6132 35.2348 29.6942 35.5892 29.9505 35.7936L31.2396 36.8215C30.9973 37.511 30.8349 38.2243 30.7545 38.9523L29.1458 39.3195C28.8262 39.3923 28.5995 39.6765 28.5991 40.0043C28.5983 40.8959 28.6972 41.7825 28.893 42.6399C29.0886 43.4972 29.3843 44.3391 29.7719 45.1421C29.9144 45.4373 30.2421 45.595 30.5615 45.5219L32.1703 45.1547C32.5585 45.7734 33.0146 46.3447 33.5329 46.8616L32.8164 48.3495C32.6742 48.6448 32.7548 48.9993 33.011 49.2038C33.7072 49.7601 34.4621 50.2357 35.2548 50.6174C36.0476 50.999 36.8901 51.2929 37.7591 51.4904C38.0786 51.5623 38.4062 51.4051 38.5484 51.1098L39.2647 49.6222C39.9967 49.7059 40.7166 49.7059 41.4485 49.6222L42.1649 51.1098C42.284 51.357 42.5327 51.5079 42.7982 51.5079C42.8498 51.5079 42.9021 51.5021 42.9543 51.4904C43.8234 51.2927 44.666 50.999 45.4585 50.6174C46.251 50.2356 47.006 49.7601 47.7023 49.2038C47.9584 48.9992 48.0391 48.6448 47.8969 48.3495L47.1803 46.8616C47.6985 46.3448 48.1546 45.7734 48.5429 45.1547L50.1518 45.5219C50.4713 45.5949 50.7991 45.4373 50.9415 45.142C51.3289 44.339 51.6246 43.4972 51.8202 42.6399C52.0162 41.7824 52.1151 40.8957 52.1143 40.0043ZM50.4496 42.3271C50.3182 42.9029 50.1352 43.4713 49.9041 44.023L48.3555 43.6696C48.0502 43.5997 47.7357 43.7406 47.5839 44.0146C47.1332 44.8287 46.5516 45.5571 45.8555 46.1795C45.6219 46.3883 45.5547 46.7264 45.6906 47.0087L46.3806 48.4414C45.8944 48.7895 45.381 49.0942 44.8486 49.3507C44.3162 49.607 43.7578 49.8183 43.1824 49.9815L42.4927 48.5493C42.3568 48.2672 42.0507 48.1088 41.7421 48.1611C41.2783 48.2395 40.8123 48.2792 40.3567 48.2792C39.9012 48.2792 39.4352 48.2395 38.9714 48.1611C38.6639 48.1088 38.3566 48.2671 38.2208 48.5493L37.5311 49.9815C36.9559 49.8183 36.3975 49.607 35.865 49.3507C35.3325 49.0942 34.8191 48.7894 34.3329 48.4414L35.0229 47.0087C35.1588 46.7264 35.0916 46.3883 34.858 46.1795C34.1617 45.5571 33.5803 44.8287 33.1298 44.0146C32.9782 43.7406 32.6634 43.5997 32.3581 43.6696L30.8095 44.0231C30.5782 43.4713 30.3953 42.9029 30.2639 42.3271C30.1325 41.7511 30.0507 41.1596 30.0196 40.5624L31.5691 40.2087C31.8749 40.139 32.0974 39.8751 32.1147 39.562C32.166 38.6294 32.3728 37.721 32.7294 36.8619C32.8495 36.5723 32.7634 36.2382 32.5182 36.0427L31.2773 35.0529C31.5645 34.5281 31.8948 34.0308 32.2631 33.569C32.6314 33.1072 33.0429 32.6744 33.4905 32.2777L34.7341 33.2695C34.9792 33.4649 35.3243 33.4748 35.5799 33.2927C36.3404 32.752 37.1792 32.3475 38.0732 32.0906C38.3745 32.004 38.5821 31.7283 38.5821 31.4149V29.8258C39.7603 29.6206 40.9533 29.6206 42.1318 29.8258V31.4149C42.1318 31.7284 42.3393 32.004 42.6407 32.0906C43.5347 32.3476 44.3736 32.752 45.1338 33.2927C45.3896 33.4748 45.7347 33.465 45.9797 33.2695L47.2234 32.2777C47.6709 32.6744 48.0824 33.1072 48.4507 33.569C48.8191 34.0308 49.1493 34.5282 49.4365 35.0529L48.1953 36.0427C47.9502 36.2382 47.8641 36.5725 47.9843 36.862C48.3408 37.7208 48.5475 38.6292 48.5989 39.562C48.6162 39.8751 48.8388 40.139 49.1445 40.2087L50.694 40.5624C50.6628 41.1595 50.5811 41.7511 50.4496 42.3271V42.3271Z" fill="white"/>
<path d="M40.3742 34.4282C37.4666 34.4282 35.1011 36.7938 35.1011 39.7014C35.1011 42.609 37.4666 44.9745 40.3742 44.9745C43.2818 44.9745 45.6474 42.609 45.6474 39.7014C45.6474 36.7938 43.2819 34.4282 40.3742 34.4282V34.4282ZM40.3742 43.5684C38.242 43.5684 36.5072 41.8336 36.5072 39.7014C36.5072 37.5692 38.242 35.8344 40.3742 35.8344C42.5065 35.8344 44.2412 37.5692 44.2412 39.7014C44.2412 41.8336 42.5065 43.5684 40.3742 43.5684Z" fill="white"/>
<path d="M64.2792 28.1004V54.1147C64.2792 54.503 64.5939 54.8178 64.9823 54.8178C65.3707 54.8178 65.6854 54.5031 65.6854 54.1147V28.8035H66.6982C67.1584 28.8035 67.5621 28.5091 67.7025 28.0708C67.843 27.6325 67.6858 27.1583 67.3114 26.8907L62.4007 23.3809C61.9064 23.0279 61.2448 23.0312 60.7542 23.3893L55.947 26.897C55.5772 27.1668 55.4241 27.6406 55.566 28.0758C55.7079 28.5111 56.1109 28.8035 56.5686 28.8035H57.5998V33.0221C57.5998 33.4104 57.9145 33.7252 58.3029 33.7252C58.6913 33.7252 59.006 33.4104 59.006 33.0221V28.1004C59.006 27.7121 58.6913 27.3972 58.3029 27.3972H57.6469L61.5831 24.5251L65.6017 27.3972H64.9822C64.5939 27.3973 64.2792 27.7121 64.2792 28.1004V28.1004Z" fill="white"/>
<path d="M25.9609 67.1219C25.9609 67.5102 26.2757 67.825 26.664 67.825C27.0524 67.825 27.3672 67.5103 27.3672 67.1219V60.091C27.3672 59.7027 27.0524 59.3879 26.664 59.3879H26.008L29.9443 56.5157L33.9628 59.3879H33.3434C32.9551 59.3879 32.6402 59.7026 32.6402 60.091V67.1219C32.6402 67.5102 32.955 67.825 33.3434 67.825C33.7317 67.825 34.0465 67.5103 34.0465 67.1219V60.7941H35.0592C35.5194 60.7941 35.9231 60.4996 36.0636 60.0613C36.2041 59.6231 36.0469 59.1488 35.6725 58.8813L30.7619 55.3714C30.2676 55.0183 29.6059 55.0217 29.1156 55.3797L24.3083 58.8875C23.9386 59.1573 23.7855 59.6311 23.9273 60.0662C24.0693 60.5016 24.4722 60.794 24.93 60.794H25.9611L25.9609 67.1219Z" fill="white"/>
<path d="M45.9987 64.6611V67.122C45.9987 67.5103 46.3135 67.8251 46.7018 67.8251C47.0902 67.8251 47.405 67.5104 47.405 67.122V65.3643H48.4177C48.8779 65.3643 49.2816 65.0698 49.4221 64.6315C49.5626 64.1933 49.4054 63.719 49.0309 63.4515L44.1203 59.9416C43.626 59.5885 42.9643 59.5919 42.474 59.9499L37.6667 63.4576C37.297 63.7275 37.1439 64.2013 37.2857 64.6364C37.4277 65.0718 37.8306 65.3642 38.2884 65.3642H39.3195V67.1219C39.3195 67.5102 39.6342 67.825 40.0226 67.825C40.411 67.825 40.7257 67.5103 40.7257 67.1219V64.661C40.7257 64.2727 40.411 63.9579 40.0226 63.9579H39.3666L43.3029 61.0857L47.3214 63.9579H46.7019C46.3135 63.9581 45.9987 64.2728 45.9987 64.6611V64.6611Z" fill="white"/>
</svg>
