<svg width="200" height="200" viewBox="0 0 90 91" fill="none" xmlns="http://www.w3.org/2000/svg">
<circle cx="45" cy="45.8273" r="45" fill="#3C3C3C"/>
<path d="M47.4646 65.8302C47.0988 65.8302 46.8023 65.5324 46.8023 65.165V63.396C46.8023 63.1426 46.5971 62.9365 46.3449 62.9365H44.567C44.3148 62.9365 44.1096 63.1426 44.1096 63.396V65.165C44.1096 65.5324 43.8131 65.8302 43.4474 65.8302C43.0817 65.8302 42.7852 65.5324 42.7852 65.165V63.396C42.7852 62.409 43.5845 61.606 44.567 61.606H46.3449C47.3274 61.606 48.1268 62.409 48.1268 63.396V65.165C48.1268 65.5324 47.8304 65.8302 47.4646 65.8302Z" fill="white"/>
<path d="M51.8229 41.5116C51.6053 41.2163 51.1906 41.1543 50.8965 41.3728C50.6026 41.5914 50.5408 42.0081 50.7583 42.3034L54.0469 46.7652C54.4127 47.2615 54.3862 48.009 53.9866 48.467L50.4436 52.5288H40.4676L36.9246 48.467C36.5251 48.009 36.4986 47.2615 36.8644 46.7652L43.3933 37.9068V42.9543C42.5657 43.5934 42.0819 44.5707 42.0819 45.6374C42.0819 47.5062 43.5953 49.0266 45.4556 49.0266C47.3159 49.0266 48.8294 47.5062 48.8294 45.6374C48.8294 44.6187 48.3781 43.6673 47.6062 43.0265V38.0266L49.0604 39.9997C49.2781 40.295 49.6928 40.357 49.9868 40.1385C50.2807 39.9198 50.3425 39.5032 50.125 39.2079L47.2844 35.3538C46.8372 34.747 46.1707 34.399 45.4557 34.399C44.7408 34.399 44.0742 34.747 43.627 35.3538L35.7999 45.9735C35.0659 46.9695 35.1212 48.4184 35.9286 49.344L38.8834 52.7313C38.1455 53.0769 37.6327 53.8287 37.6327 54.6989V57.8728C37.6327 58.8445 38.2717 59.669 39.1497 59.9446L39.3304 65.1882C39.3428 65.5476 39.6366 65.8305 39.9919 65.8305C39.9996 65.8305 40.0074 65.8304 40.0152 65.8302C40.3807 65.8174 40.6667 65.5095 40.6541 65.1423L40.4784 60.0429H50.5213L50.3456 65.1423C50.333 65.5095 50.6191 65.8174 50.9846 65.8302C50.9923 65.8304 51.0001 65.8305 51.0079 65.8305C51.363 65.8305 51.657 65.5476 51.6693 65.1882L51.851 59.9142C52.6827 59.6122 53.2787 58.8112 53.2787 57.8728V54.6989C53.2787 53.8287 52.7659 53.0769 52.0281 52.7313L54.9828 49.344C55.7902 48.4185 55.8455 46.9695 55.1115 45.9735L51.8229 41.5116ZM45.4556 35.7295C45.7507 35.7295 46.0221 35.8772 46.2198 36.1453L46.2817 36.2294V43.3608C46.2817 43.5846 46.3938 43.7935 46.5799 43.9165C47.1591 44.2993 47.5049 44.9427 47.5049 45.6372C47.5049 46.7724 46.5856 47.6959 45.4556 47.6959C44.3257 47.6959 43.4064 46.7724 43.4064 45.6372C43.4064 44.9098 43.7771 44.2506 44.398 43.8737C44.5965 43.7532 44.7178 43.5372 44.7178 43.3043V36.1131C44.9129 35.8662 45.1731 35.7295 45.4556 35.7295V35.7295ZM51.9543 57.8726C51.9543 58.3355 51.5793 58.7121 51.1186 58.7121H39.7927C39.3319 58.7121 38.9571 58.3355 38.9571 57.8726V54.6988C38.9571 54.2359 39.332 53.8593 39.7927 53.8593H51.1186C51.5794 53.8593 51.9543 54.2359 51.9543 54.6988V57.8726Z" fill="white"/>
<path d="M32.2772 41.7158C32.3642 39.608 32.9477 37.5443 33.9806 35.7156C34.161 35.396 34.0495 34.99 33.7314 34.8087C33.4132 34.6273 33.0091 34.7395 32.8286 35.0591C31.6839 37.0856 31.0403 39.3738 30.9516 41.7093C29.8088 42.0012 28.9609 43.0434 28.9609 44.281C28.9609 45.7441 30.1458 46.9344 31.6022 46.9344C33.0586 46.9344 34.2435 45.7441 34.2435 44.281C34.2435 43.0522 33.4077 42.0162 32.2772 41.7158V41.7158ZM31.6022 45.6039C30.8761 45.6039 30.2854 45.0104 30.2854 44.281C30.2854 43.5516 30.8761 42.9582 31.6022 42.9582C32.3283 42.9582 32.919 43.5516 32.919 44.281C32.919 45.0104 32.3283 45.6039 31.6022 45.6039Z" fill="white"/>
<path d="M66.5978 25.8273H64.4696C63.6965 25.8273 63.0674 26.4592 63.0674 27.2359V27.6396H47.9663V27.2359C47.9663 26.4592 47.3372 25.8273 46.5641 25.8273H44.4359C43.6628 25.8273 43.0337 26.4592 43.0337 27.2359V27.6396H27.9326V27.2359C27.9326 26.4592 27.3035 25.8273 26.5304 25.8273H24.4022C23.629 25.8273 23 26.4592 23 27.2359V29.3738C23 30.1505 23.629 30.7824 24.4022 30.7824H26.5304C27.3035 30.7824 27.9326 30.1505 27.9326 29.3738V28.9701H39.4288C37.5903 29.8185 35.9306 31.0508 34.5677 32.6061C34.326 32.8819 34.3526 33.3023 34.6272 33.545C34.753 33.6563 34.9091 33.711 35.0646 33.711C35.2482 33.711 35.431 33.6347 35.5619 33.4853C37.5202 31.2506 40.1509 29.7484 43.0337 29.2019V29.3739C43.0337 30.1506 43.6628 30.7825 44.4359 30.7825H46.5641C47.3372 30.7825 47.9663 30.1506 47.9663 29.3739V29.2018C53.9783 30.3398 58.4701 35.5479 58.7238 41.7156C57.593 42.0158 56.7567 43.052 56.7567 44.2811C56.7567 45.7441 57.9416 46.9345 59.398 46.9345C60.8544 46.9345 62.0393 45.7441 62.0393 44.2811C62.0393 43.0436 61.1915 42.0014 60.0488 41.7094C59.8371 36.1132 56.4537 31.2279 51.5715 28.9703H63.0674V29.374C63.0674 30.1506 63.6965 30.7826 64.4696 30.7826H66.5978C67.371 30.7826 68 30.1506 68 29.374V27.2359C68 26.4592 67.371 25.8273 66.5978 25.8273V25.8273ZM26.6081 29.3738C26.6081 29.4168 26.5732 29.4518 26.5304 29.4518H24.4022C24.3594 29.4518 24.3245 29.4168 24.3245 29.3738V27.2359C24.3245 27.1928 24.3594 27.1578 24.4022 27.1578H26.5304C26.5732 27.1578 26.6081 27.1928 26.6081 27.2359V29.3738ZM60.7148 44.2809C60.7148 45.0103 60.1241 45.6037 59.398 45.6037C58.6719 45.6037 58.0812 45.0103 58.0812 44.2809C58.0812 43.5515 58.6719 42.9581 59.398 42.9581C60.1241 42.9581 60.7148 43.5515 60.7148 44.2809ZM46.6418 29.3738C46.6418 29.4168 46.6069 29.4518 46.5641 29.4518H44.4359C44.3931 29.4518 44.3582 29.4168 44.3582 29.3738V27.2359C44.3582 27.1928 44.3931 27.1578 44.4359 27.1578H46.5641C46.6069 27.1578 46.6418 27.1928 46.6418 27.2359V29.3738ZM66.6755 29.3738C66.6755 29.4168 66.6406 29.4518 66.5978 29.4518H64.4696C64.4268 29.4518 64.3919 29.4168 64.3919 29.3738V27.2359C64.3919 27.1928 64.4268 27.1578 64.4696 27.1578H66.5978C66.6406 27.1578 66.6755 27.1928 66.6755 27.2359V29.3738Z" fill="white"/>
</svg>
