<svg width="117" height="31" viewBox="0 0 117 31" fill="none" xmlns="http://www.w3.org/2000/svg">
<path d="M112.403 24.7647L105.78 18.1417L105.624 23.3549H102.624V8.72412H105.624V14.7707C106.407 15.5539 114.216 23.3628 114.216 23.3628L112.403 24.7647Z" fill="white"/>
<path d="M106.327 14.426L113.127 7.62598L116.038 8.56586L108.252 16.3512L106.327 14.426Z" fill="white"/>
<path d="M43.0245 23.3692L42.7974 22.1333H42.7222C41.9154 23.117 40.6529 23.6465 39.1898 23.6465C36.6913 23.6465 35.2031 21.8309 35.2031 19.8619C35.2031 16.6584 38.0792 15.1186 42.4449 15.1437V14.9667C42.4449 14.3119 42.0909 13.3783 40.1986 13.3783C39.0012 13.3917 37.8279 13.7156 36.7931 14.3181L36.0866 11.8447C36.9435 11.3654 38.6353 10.7591 40.88 10.7591C44.9935 10.7591 46.3047 13.1825 46.3047 16.0851V20.3741C46.3047 21.5599 46.3548 22.6956 46.4817 23.377L43.0245 23.3692ZM42.5702 17.5404C40.5526 17.5153 38.9877 17.9946 38.9877 19.4844C38.9877 20.4681 39.6441 20.9474 40.5025 20.9474C40.9403 20.9502 41.368 20.8157 41.7254 20.5628C42.0828 20.3099 42.3519 19.9514 42.495 19.5376C42.5462 19.3226 42.5714 19.1023 42.5702 18.8813V17.5404ZM61.2911 5.45508V19.6849C61.2911 21.0728 61.3428 22.5374 61.3929 23.3692H57.9796L57.8041 21.5521H57.754C56.9707 22.94 55.4826 23.6465 53.8926 23.6465C50.9665 23.6465 48.6199 21.1495 48.6199 17.3132C48.5949 13.1511 51.1936 10.7529 54.1448 10.7529C55.6596 10.7529 56.8454 11.2839 57.4 12.1408H57.4501V5.45508H61.2911ZM57.4564 16.2543C57.4521 16.0264 57.4354 15.7989 57.4062 15.5729C57.1791 14.539 56.3473 13.6743 55.1599 13.6743C53.4196 13.6743 52.511 15.2408 52.511 17.1817C52.511 19.276 53.5465 20.5871 55.1348 20.5871C55.6611 20.5894 56.1714 20.4068 56.5767 20.0713C56.9821 19.7358 57.2568 19.2686 57.353 18.7512C57.4262 18.4632 57.4599 18.1665 57.4532 17.8693L57.4564 16.2543ZM64.3692 15.0935C64.3692 13.2764 64.319 12.0906 64.2689 11.0317H67.5742L67.6995 13.3015H67.8013C68.4279 11.511 69.9458 10.7529 71.1316 10.7529C71.4016 10.7418 71.672 10.7591 71.9383 10.8046V14.4074C71.5976 14.3416 71.2515 14.308 70.9045 14.3072C69.4947 14.3072 68.5328 15.0638 68.2806 16.2496C68.2271 16.5326 68.2014 16.8201 68.2039 17.108V23.3645H64.3692V15.0935ZM80.6933 23.3692L80.4662 22.1333H80.391C79.5843 23.117 78.3217 23.6465 76.8586 23.6465C74.3601 23.6465 72.872 21.8309 72.872 19.8619C72.872 16.6584 75.748 15.1186 80.1137 15.1437V14.9667C80.1137 14.3119 79.7597 13.3783 77.8674 13.3783C76.6701 13.3917 75.4967 13.7156 74.4619 14.3181L73.7554 11.8447C74.6123 11.3654 76.3041 10.7591 78.5488 10.7591C82.6624 10.7591 83.9735 13.1825 83.9735 16.0851V20.3741C83.9735 21.5599 84.0236 22.6956 84.1505 23.377L80.6933 23.3692ZM80.239 17.5404C78.2214 17.5153 76.6565 17.9946 76.6565 19.4844C76.6565 20.4681 77.3129 20.9474 78.1697 20.9474C78.6078 20.9503 79.0357 20.8158 79.3934 20.563C79.751 20.3101 80.0205 19.9515 80.1639 19.5376C80.215 19.3226 80.2402 19.1023 80.239 18.8813V17.5404ZM91.0884 7.49932V11.0317H93.8391V13.8513H91.0884V18.3173C91.0884 19.8055 91.4424 20.4869 92.6016 20.4869C92.9825 20.4882 93.3627 20.4542 93.7373 20.3851L93.7624 23.2877C93.258 23.4898 92.3525 23.6151 91.2654 23.6151C90.0279 23.6151 88.994 23.1859 88.3894 22.5562C87.6829 21.8247 87.3289 20.6388 87.3289 18.8969V13.8576H85.6888V11.038H87.3289V8.35617L91.0884 7.49932ZM100.017 7.59957C100.017 8.66007 99.2105 9.51693 97.9495 9.51693C96.7386 9.51693 95.9303 8.66007 95.9554 7.59957C95.9303 6.48895 96.7386 5.65715 97.9746 5.65715C99.2105 5.65715 99.9938 6.48895 100.019 7.59957H100.017ZM96.0588 23.3692V11.0317H99.8935V23.3692H96.0588Z" fill="white"/>
<path d="M27.0954 20.4868C27.1565 20.4868 27.216 20.4962 27.2771 20.4962C27.216 20.4962 27.1565 20.4962 27.0954 20.4868C26.2827 20.4401 25.5186 20.0847 24.9593 19.4933C24.4 18.902 24.0876 18.1193 24.0862 17.3053V12.7625C24.0862 12.7155 24.094 12.667 24.094 12.6184C24.0938 12.5708 24.0912 12.5232 24.0862 12.4759C24.0494 12.0755 23.8644 11.7032 23.5673 11.4323C23.2703 11.1613 22.8826 11.0111 22.4805 11.0112H20.8687V14.0831C20.8688 15.751 21.5194 17.3531 22.6821 18.5489C23.8449 19.7447 25.4281 20.4399 27.0954 20.4868Z" fill="white"/>
<path d="M32.0737 11.0112C31.6706 11.0113 31.2822 11.1623 30.985 11.4346C30.6877 11.7069 30.5033 12.0806 30.4681 12.4821C30.4681 12.5291 30.4602 12.5761 30.4602 12.6231C30.4605 12.6707 30.4631 12.7183 30.4681 12.7657V17.3084C30.4666 18.1222 30.1545 18.9046 29.5955 19.4959C29.0365 20.0873 28.2728 20.4428 27.4604 20.4899C29.1274 20.4426 30.7103 19.7472 31.8727 18.5515C33.0351 17.3557 33.6854 15.7538 33.6856 14.0862V11.0112H32.0737Z" fill="white"/>
<path d="M27.4603 20.4867C27.3993 20.4867 27.3382 20.4961 27.2771 20.4961C27.216 20.4961 27.1565 20.4961 27.0954 20.4867C25.4281 20.4398 23.8449 19.7446 22.6821 18.5488C21.5194 17.353 20.8688 15.7509 20.8687 14.083V17.3052C20.8687 19.0048 21.5438 20.6349 22.7456 21.8367C23.9474 23.0385 25.5775 23.7137 27.2771 23.7137C28.9767 23.7137 30.6067 23.0385 31.8085 21.8367C33.0103 20.6349 33.6855 19.0048 33.6855 17.3052V14.083C33.6853 15.7506 33.035 17.3525 31.8726 18.5483C30.7102 19.744 29.1273 20.4394 27.4603 20.4867V20.4867Z" fill="white"/>
<path fill-rule="evenodd" clip-rule="evenodd" d="M17.8389 0.0476074L8.91633 15.4961L8.25528 16.6443L5.19754 21.9405V21.9484L0 30.9524H6.12019L11.3177 21.9484L12.3986 20.0765L18.6786 30.9524H24.7987L19.6012 21.9484V21.9405L16.5403 16.6381L15.8808 15.4961L16.5403 14.3526L19.6012 9.05166L24.7987 0.0476074H17.8389Z" fill="white"/>
<path fill-rule="evenodd" clip-rule="evenodd" d="M1.53682 0.0476074L1.53369 13.1072V14.434V18.8969L2.83386 16.6443L3.49491 15.4961L7.56459 8.45327V8.30602V2.18583V0.0476074H1.53682Z" fill="white"/>
</svg>
